<svg width="20" height="20" viewBox="0 0 20 20" fill="none" xmlns="http://www.w3.org/2000/svg">
<path fill-rule="evenodd" clip-rule="evenodd" d="M14.1667 1.66669C14.6269 1.66669 15 2.03978 15 2.50002V3.33335H15.8334C17.2141 3.33335 18.3334 4.45264 18.3334 5.83335V15.8334C18.3334 17.2141 17.2141 18.3334 15.8334 18.3334H4.16669C2.78598 18.3334 1.66669 17.2141 1.66669 15.8334V5.83335C1.66669 4.45264 2.78598 3.33335 4.16669 3.33335H5.00002V2.50002C5.00002 2.03978 5.37312 1.66669 5.83335 1.66669C6.29359 1.66669 6.66669 2.03978 6.66669 2.50002V3.33335H13.3334V2.50002C13.3334 2.03978 13.7065 1.66669 14.1667 1.66669ZM3.33335 10V15.8334C3.33335 16.2936 3.70645 16.6667 4.16669 16.6667H15.8334C16.2936 16.6667 16.6667 16.2936 16.6667 15.8334V10H3.33335ZM3.33335 8.33335H16.6667V5.83335C16.6667 5.37312 16.2936 5.00002 15.8334 5.00002H15V5.83335C15 6.29359 14.6269 6.66669 14.1667 6.66669C13.7064 6.66669 13.3334 6.29359 13.3334 5.83335V5.00002H6.66669V5.83335C6.66669 6.29359 6.29359 6.66669 5.83335 6.66669C5.37312 6.66669 5.00002 6.29359 5.00002 5.83335V5.00002H4.16669C3.70645 5.00002 3.33335 5.37312 3.33335 5.83335V8.33335Z" fill="#828282"/>
</svg>
