<svg width="177" height="178" viewBox="0 0 177 178" fill="none" xmlns="http://www.w3.org/2000/svg">
<g style="mix-blend-mode:overlay">
<mask id="mask0" mask-type="alpha" maskUnits="userSpaceOnUse" x="-1" y="-1" width="179" height="180">
<path d="M112.647 14.6184C109.208 21.4976 112.131 29.4087 96.3093 30.0967C76.5315 30.9566 74.8117 32.6764 68.7923 44.715C62.773 56.7537 61.9131 60.1933 53.3141 65.3527C39.5556 73.6078 31.8165 67.0725 22.3575 73.9517C8.53815 84.0022 9.45899 96.3092 10.3189 101.469" stroke="#DBDDDC"/>
<path d="M107.913 6.87915C104.473 13.7584 107.397 21.6695 91.5749 22.3574C71.7971 23.2173 70.0773 24.9371 64.058 36.9758C58.0386 49.0144 57.1787 52.454 48.5797 57.6135C34.8213 65.8685 27.0821 59.3333 17.6232 66.2125C3.80378 76.263 4.72461 88.57 5.58451 93.7294" stroke="#DBDDDC"/>
<path d="M102.754 0C99.3142 6.87923 102.238 14.7903 86.4157 15.4783C66.6379 16.3382 64.9181 18.058 58.8988 30.0966C52.8795 42.1353 52.0196 45.5749 43.4205 50.7343C29.6621 58.9894 21.9229 52.4541 12.464 59.3333C-1.3554 69.3838 -0.43457 81.6908 0.425334 86.8502" stroke="#DBDDDC"/>
<path d="M116.512 20.6377C113.073 27.5169 115.996 35.428 100.174 36.116C80.3962 36.9759 78.6764 38.6957 72.6571 50.7343C66.6378 62.773 65.7779 66.2126 57.1788 71.372C43.4204 79.6271 35.6812 73.0918 26.2223 79.971C12.4029 90.0215 13.3237 102.329 14.1836 107.488" stroke="#DBDDDC"/>
<path d="M121.672 25.7971C118.232 32.6763 121.156 40.5875 105.334 41.2754C85.5559 42.1353 83.8361 43.8551 77.8168 55.8937C71.7974 67.9324 70.9375 71.372 62.3385 76.5314C48.5801 84.7865 40.8409 78.2512 31.382 85.1305C17.5626 95.1809 18.4834 107.488 19.3433 112.647" stroke="#DBDDDC"/>
<path d="M126.831 32.6763C123.391 39.5555 126.315 47.4666 110.493 48.1545C90.7151 49.0144 88.9953 50.7342 82.9759 62.7729C76.9566 74.8115 76.0967 78.2511 67.4977 83.4106C53.7392 91.6656 46 85.1304 36.5411 92.0096C22.7217 102.06 23.6426 114.367 24.5025 119.527" stroke="#DBDDDC"/>
<path d="M131.991 39.5557C128.551 46.4349 131.475 54.346 115.653 55.0339C95.8747 55.8938 94.1549 57.6136 88.1356 69.6523C82.1163 81.6909 81.2564 85.1305 72.6573 90.29C58.8989 98.545 51.1597 92.0098 41.7008 98.889C27.8814 108.939 28.8022 121.246 29.6622 126.406" stroke="#DBDDDC"/>
<path d="M137.15 46.4348C133.71 53.314 136.634 61.2252 120.812 61.9131C101.034 62.773 99.3141 64.4928 93.2948 76.5314C87.2755 88.5701 86.4156 92.0097 77.8165 97.1691C64.0581 105.424 56.3189 98.8889 46.86 105.768C33.0406 115.819 33.9614 128.126 34.8213 133.285" stroke="#DBDDDC"/>
<path d="M142.31 55.0339C138.87 61.9132 141.794 69.8243 125.971 70.5122C106.194 71.3721 104.474 73.0919 98.4545 85.1306C92.4351 97.1692 91.5752 100.609 82.9762 105.768C69.2178 114.023 61.4786 107.488 52.0196 114.367C38.2003 124.418 39.1211 136.725 39.981 141.884" stroke="#DBDDDC"/>
<path d="M149.188 61.9131C145.749 68.7923 148.672 76.7034 132.85 77.3913C113.072 78.2513 111.353 79.9711 105.333 92.0097C99.314 104.048 98.4541 107.488 89.8551 112.647C76.0967 120.902 68.3575 114.367 58.8986 121.246C45.0792 131.297 46 143.604 46.8599 148.763" stroke="#DBDDDC"/>
<path d="M156.068 68.7922C152.628 75.6715 155.552 83.5826 139.73 84.2705C119.952 85.1304 118.232 86.8502 112.213 98.8889C106.193 110.928 105.334 114.367 96.7345 119.527C82.9761 127.782 75.2369 121.246 65.7779 128.126C51.9586 138.176 52.8794 150.483 53.7393 155.642" stroke="#DBDDDC"/>
<path d="M162.947 75.6714C159.508 82.5506 162.431 90.4617 146.609 91.1496C126.831 92.0096 125.111 93.7294 119.092 105.768C113.073 117.807 112.213 121.246 103.614 126.406C89.8555 134.661 82.1163 128.125 72.6573 135.005C58.838 145.055 59.7588 157.362 60.6187 162.522" stroke="#DBDDDC"/>
<path d="M171.546 82.5508C168.107 89.43 171.03 97.3411 155.208 98.029C135.43 98.8889 133.711 100.609 127.691 112.647C121.672 124.686 120.812 128.126 112.213 133.285C98.4546 141.54 90.7154 135.005 81.2565 141.884C67.4371 151.935 68.3579 164.242 69.2178 169.401" stroke="#DBDDDC"/>
<path d="M176.705 91.1497C173.266 98.0289 176.19 105.94 160.367 106.628C140.59 107.488 138.87 109.208 132.85 121.246C126.831 133.285 125.971 136.725 117.372 141.884C103.614 150.139 95.8746 143.604 86.4156 150.483C72.5963 160.533 73.5171 172.84 74.377 178" stroke="#DBDDDC"/>
</mask>
<g mask="url(#mask0)">
<circle cx="85.9903" cy="89.43" r="65.3527" fill="#C4C4C4"/>
</g>
</g>
</svg>
