<svg width="62" height="62" viewBox="0 0 62 62" fill="none" xmlns="http://www.w3.org/2000/svg">
<g clip-path="url(#clip0)">
<path d="M30.4394 52.4081C30.2141 52.1829 29.9017 52.0532 29.5832 52.0532C29.2648 52.0532 28.9524 52.1828 28.7271 52.4081C28.5019 52.6333 28.3723 52.9457 28.3723 53.2642C28.3723 53.584 28.5019 53.8951 28.7271 54.1203C28.9524 54.3467 29.2648 54.4751 29.5832 54.4751C29.9017 54.4751 30.2141 54.3467 30.4394 54.1203C30.6646 53.8951 30.7942 53.5828 30.7942 53.2642C30.7942 52.9457 30.6645 52.6333 30.4394 52.4081Z" fill="#DBBD82"/>
<path d="M36.2049 41.2371V32.3268C36.2049 31.9245 36.0051 31.5484 35.6718 31.3233C35.3384 31.0982 34.9149 31.0534 34.5416 31.2036L13.6756 39.6071H6.95492C3.12013 39.6071 0.000152588 42.7271 0.000152588 46.5621C0.000152588 50.3971 3.12013 53.5171 6.95516 53.5171H7.75547V60.789C7.75547 61.4577 8.2976 62 8.9664 62H13.9099C14.5787 62 15.1209 61.4577 15.1209 60.789V54.1013L34.5422 61.9125C34.6879 61.9712 34.8413 62.0001 34.9939 62.0001C35.2322 62.0001 35.4688 61.9297 35.672 61.7925C36.0053 61.5674 36.2049 61.1913 36.2049 60.7892V51.879C38.6333 51.3264 40.4519 49.1513 40.4519 46.5581C40.4519 43.9649 38.6333 41.7897 36.2049 41.2371ZM12.6989 59.5781H10.1773V53.517H12.699V59.5781H12.6989ZM12.6991 51.0951H6.95516C4.45555 51.0951 2.42202 49.0616 2.42202 46.5621C2.42202 44.0625 4.45555 42.029 6.95516 42.029H12.6996L12.6991 51.0951ZM33.7832 58.9967H33.7831L15.1215 51.491V41.6357L28.3724 36.2991V48.3164C28.3724 48.9851 28.9145 49.5273 29.5833 49.5273C30.2521 49.5273 30.7942 48.9851 30.7942 48.3164V35.3236L33.7832 34.1199V58.9967ZM36.2049 49.3413V43.7747C37.2779 44.2433 38.0301 45.3142 38.0301 46.558C38.0301 47.8017 37.2781 48.8727 36.2049 49.3413Z" fill="#DBBD82"/>
<path d="M52.004 45.3828H45.1479C44.4791 45.3828 43.937 45.9251 43.937 46.5938C43.937 47.2624 44.4791 47.8047 45.1479 47.8047H52.004C52.6728 47.8047 53.2149 47.2624 53.2149 46.5938C53.2149 45.9251 52.6728 45.3828 52.004 45.3828Z" fill="#DBBD82"/>
<path d="M46.3813 36.5093C45.9084 36.0366 45.1416 36.0366 44.6686 36.5093L42.3037 38.8743C41.8308 39.3472 41.8308 40.1139 42.3037 40.5869C42.5403 40.8233 42.8502 40.9416 43.16 40.9416C43.4699 40.9416 43.7799 40.8233 44.0163 40.5869L46.3813 38.222C46.8541 37.7491 46.8541 36.9823 46.3813 36.5093Z" fill="#DBBD82"/>
<path d="M46.4701 54.8524L44.0261 52.4083C43.5532 51.9355 42.7864 51.9355 42.3135 52.4083C41.8406 52.8811 41.8406 53.6479 42.3135 54.1209L44.7576 56.5651C44.9941 56.8014 45.304 56.9198 45.6139 56.9198C45.9238 56.9198 46.2337 56.8014 46.4701 56.5651C46.943 56.0922 46.943 55.3254 46.4701 54.8524Z" fill="#DBBD82"/>
<path d="M57.1562 0H34.6329C31.962 0 29.7891 2.1729 29.7891 4.84374V5.32811H9.4454C7.84285 5.32811 6.53915 6.63193 6.53915 8.23436V27.3671C6.53915 28.9696 7.84285 30.2734 9.4454 30.2734H10.6967V33.987C10.6967 34.4768 10.9918 34.9183 11.4442 35.1057C11.594 35.1677 11.7513 35.1979 11.9074 35.1979C12.2224 35.1979 12.5322 35.0749 12.7638 34.8432L17.3337 30.2734H41.3874C42.99 30.2734 44.2937 28.9696 44.2937 27.3671V23.7343H57.1562C59.8271 23.7343 62 21.5614 62 18.8906V4.84374C61.9999 2.1729 59.8271 0 57.1562 0ZM41.8718 27.3671C41.8718 27.6343 41.6546 27.8515 41.3874 27.8515H16.8321C16.511 27.8515 16.2029 27.9791 15.9759 28.2062L13.1186 31.0635V29.0624C13.1186 28.3938 12.5765 27.8515 11.9077 27.8515H9.4454C9.17827 27.8515 8.96102 27.6343 8.96102 27.3671V8.23436C8.96102 7.96723 9.17827 7.74999 9.4454 7.74999H29.7891V18.8906C29.7891 21.5614 31.962 23.7343 34.6329 23.7343H41.8718V27.3671ZM59.5781 18.8906C59.5781 20.226 58.4917 21.3125 57.1562 21.3125H34.6329C33.2974 21.3125 32.211 20.226 32.211 18.8906V4.84374C32.211 3.50832 33.2974 2.42187 34.6329 2.42187H57.1562C58.4917 2.42187 59.5781 3.50832 59.5781 4.84374V18.8906Z" fill="#DBBD82"/>
<path d="M47.98 6.04C46.9267 6.04 46.4 6.61333 46.4 7.76V8.4H49.34V10.4H46.48V19H43.98V10.4H42.22V8.4H43.98V7.72C43.98 6.57333 44.3133 5.67333 44.98 5.02C45.6467 4.35333 46.5867 4.02 47.8 4.02C48.76 4.02 49.5133 4.21333 50.06 4.6L49.36 6.48C48.9333 6.18667 48.4733 6.04 47.98 6.04Z" fill="#DBBD82"/>
<path d="M25.976 12.7148H13.8667C13.1979 12.7148 12.6557 13.2571 12.6557 13.9258C12.6557 14.5945 13.1979 15.1367 13.8667 15.1367H25.976C26.6448 15.1367 27.187 14.5945 27.187 13.9258C27.187 13.2571 26.6448 12.7148 25.976 12.7148Z" fill="#DBBD82"/>
<path d="M26.832 19.8509C26.6068 19.6255 26.2944 19.4961 25.9759 19.4961C25.6574 19.4961 25.345 19.6255 25.1198 19.8509C24.8945 20.0761 24.765 20.3886 24.765 20.707C24.765 21.0255 24.8945 21.3379 25.1198 21.563C25.345 21.7883 25.6574 21.918 25.9759 21.918C26.2956 21.918 26.6068 21.7884 26.832 21.563C27.0573 21.3379 27.1868 21.0255 27.1868 20.707C27.1868 20.3886 27.0573 20.0761 26.832 19.8509Z" fill="#DBBD82"/>
<path d="M21.4337 19.4961H13.8667C13.1979 19.4961 12.6557 20.0384 12.6557 20.707C12.6557 21.3757 13.1979 21.918 13.8667 21.918H21.4337C22.1025 21.918 22.6446 21.3757 22.6446 20.707C22.6446 20.0384 22.1025 19.4961 21.4337 19.4961Z" fill="#DBBD82"/>
</g>
<defs>
<clipPath id="clip0">
<rect width="62" height="62" fill="white"/>
</clipPath>
</defs>
</svg>
