<svg width="16" height="21" viewBox="0 0 16 21" fill="none" xmlns="http://www.w3.org/2000/svg">
<path fill-rule="evenodd" clip-rule="evenodd" d="M1.65079 19.7593C1.00212 20.3153 0 19.8544 0 19V3C0 1.34315 1.34315 0 3 0H13C14.6569 0 16 1.34315 16 3V19C16 19.8544 14.9979 20.3153 14.3492 19.7593L8 14.3171L1.65079 19.7593ZM14 16.8258V2.99999C14 2.44771 13.5523 1.99999 13 1.99999H3C2.44771 1.99999 2 2.44771 2 2.99999V16.8258L7.34921 12.2407C7.7237 11.9197 8.2763 11.9197 8.65079 12.2407L14 16.8258Z" fill="#1D3330"/>
</svg>
