<?xml version="1.0" encoding="UTF-8"?>
<svg width="557px" height="78px" viewBox="0 0 557 78" version="1.1" xmlns="http://www.w3.org/2000/svg" xmlns:xlink="http://www.w3.org/1999/xlink">
    <title>HustlePlaybook Copy 4</title>
    <g id="Page-1" stroke="none" stroke-width="1" fill="none" fill-rule="evenodd">
        <g id="HustlePlaybook-Copy-4" transform="translate(0.460000, 0.670000)" fill-rule="nonzero">
            <path d="M10.608,57.33 L10.608,34.164 L35.724,34.164 L35.724,57.33 L46.332,57.33 L46.332,1.17 L35.724,1.17 L35.724,24.258 L10.608,24.258 L10.608,1.17 L0,1.17 L0,57.33 L10.608,57.33 Z M69.3650163,58.578 C73.4990163,58.578 76.9245163,57.681 79.6415163,55.887 C80.8059448,55.1181429 81.8450163,54.2466122 82.7587306,53.2724082 L83.015,52.991 L83.0150163,57.33 L92.3750163,57.33 L92.3750163,15.21 L81.6890163,15.21 L81.6890163,36.582 C81.6890163,39.182 81.3965163,41.2815 80.8115163,42.8805 C80.2265163,44.4795 79.4790163,45.6885 78.5690163,46.5075 C77.6590163,47.3265 76.6840163,47.879 75.6440163,48.165 C74.6040163,48.451 73.6290163,48.594 72.7190163,48.594 C70.4570163,48.594 68.7085163,48.087 67.4735163,47.073 C66.2385163,46.059 65.3480163,44.798 64.8020163,43.29 C64.2560163,41.782 63.9310163,40.2805 63.8270163,38.7855 C63.7230163,37.2905 63.6710163,36.062 63.6710163,35.1 L63.6710163,35.1 L63.6710163,15.21 L52.9070163,15.21 L52.9079394,39.0133846 C52.915324,39.7204615 52.9670163,40.782 53.0630163,42.198 C53.1670163,43.732 53.4660163,45.4285 53.9600163,47.2875 C54.4540163,49.1465 55.2795163,50.934 56.4365163,52.65 C57.5935163,54.366 59.2120163,55.783 61.2920163,56.901 C63.3720163,58.019 66.0630163,58.578 69.3650163,58.578 Z M116.188033,58.5 C121.700033,58.5 126.016033,57.265 129.136033,54.795 C132.256033,52.325 133.816033,48.932 133.816033,44.616 C133.816033,42.432 133.374033,40.5665 132.490033,39.0195 C131.606033,37.4725 130.195533,36.1465 128.258533,35.0415 C126.321533,33.9365 123.754033,32.968 120.556033,32.136 C117.280033,31.304 114.842533,30.628 113.243533,30.108 C111.644533,29.588 110.591533,29.081 110.084533,28.587 C109.577533,28.093 109.324033,27.482 109.324033,26.754 C109.324033,25.532 109.915533,24.596 111.098533,23.946 C112.281533,23.296 113.848033,23.036 115.798033,23.166 C117.800033,23.322 119.386033,23.855 120.556033,24.765 C121.726033,25.675 122.402033,26.91 122.584033,28.47 L122.584033,28.47 L133.426033,26.52 C133.062033,23.972 132.093533,21.762 130.520533,19.89 C128.947533,18.018 126.887033,16.575 124.339033,15.561 C121.791033,14.547 118.866033,14.04 115.564033,14.04 C112.158033,14.04 109.200533,14.5795 106.691533,15.6585 C104.182533,16.7375 102.239033,18.2715 100.861033,20.2605 C99.4830325,22.2495 98.7940325,24.596 98.7940325,27.3 C98.7940325,29.458 99.2490325,31.2975 100.159033,32.8185 C101.069033,34.3395 102.551033,35.646 104.605033,36.738 C106.659033,37.83 109.402033,38.818 112.834033,39.702 C115.876033,40.508 118.118533,41.158 119.561533,41.652 C121.004533,42.146 121.934033,42.6465 122.350033,43.1535 C122.766033,43.6605 122.974033,44.33 122.974033,45.162 C122.974033,46.488 122.454033,47.5215 121.414033,48.2625 C120.374033,49.0035 118.892033,49.374 116.968033,49.374 C114.628033,49.374 112.697533,48.815 111.176533,47.697 C109.655533,46.579 108.674033,45.032 108.232033,43.056 L108.232033,43.056 L97.3900325,44.694 C98.0920325,49.088 100.074533,52.4875 103.337533,54.8925 C106.600533,57.2975 110.884033,58.5 116.188033,58.5 Z M155.542549,58.0515 C158.337549,58.1165 161.191049,57.876 164.103049,57.33 L164.103049,57.33 L164.103049,48.516 C161.607049,48.854 159.332049,48.958 157.278049,48.828 C155.224049,48.698 153.729049,47.892 152.793049,46.41 C152.299049,45.63 152.032549,44.5835 151.993549,43.2705 C151.954549,41.9575 151.935049,40.482 151.935049,38.844 L151.935,23.4 L164.103049,23.4 L164.103049,15.21 L151.935,15.21 L151.935049,3.51 L141.327049,3.51 L141.327,15.21 L134.151049,15.21 L134.151049,23.4 L141.327,23.4 L141.327829,40.216605 C141.331989,42.191565 141.352789,43.995965 141.390229,45.629805 L141.405049,46.2345 C141.457049,48.2235 142.003049,50.18 143.043049,52.104 C144.187049,54.158 145.857549,55.6465 148.054549,56.5695 C150.251549,57.4925 152.747549,57.9865 155.542549,58.0515 Z M181.286065,57.33 L181.286065,-2.27373675e-13 L170.678065,-2.27373675e-13 L170.678065,57.33 L181.286065,57.33 Z M228.070081,39.234 C228.512081,34.138 227.992081,29.705 226.510081,25.935 C225.028081,22.165 222.740081,19.24 219.646081,17.16 C216.552081,15.08 212.795081,14.04 208.375081,14.04 C204.215081,14.04 200.536081,14.9825 197.338081,16.8675 C194.140081,18.7525 191.631081,21.398 189.811081,24.804 C187.991081,28.21 187.081081,32.214 187.081081,36.816 C187.081081,41.028 188.010581,44.7655 189.869581,48.0285 C191.728581,51.2915 194.302581,53.8525 197.591581,55.7115 C200.880581,57.5705 204.683081,58.5 208.999081,58.5 C213.055081,58.5 216.792581,57.434 220.211581,55.302 C223.630581,53.17 226.133081,50.18 227.719081,46.332 L227.719081,46.332 L217.111081,43.29 C216.331081,45.006 215.200081,46.319 213.718081,47.229 C212.236081,48.139 210.455081,48.594 208.375081,48.594 C205.073081,48.594 202.570581,47.5215 200.867581,45.3765 C199.623081,43.809 198.833303,41.7659519 198.498245,39.2473558 L198.496,39.234 L222.961081,39.234 L228.070081,39.234 Z M217.338,31.356 L198.777,31.356 L198.782275,31.3309286 C199.17327,29.51325 199.808637,27.9959062 200.688375,26.7788973 L200.867581,26.5395 C202.570581,24.3425 205.229081,23.244 208.843081,23.244 C211.937081,23.244 214.166581,24.1865 215.531581,26.0715 C216.409081,27.2832857 217.004528,28.992023 217.317921,31.1977117 L217.338,31.356 Z" id="Hustle" fill="#383C3D"></path>
            <path d="M243.888098,57.33 L243.888098,38.298 L257.173135,38.297037 C257.676443,38.2919012 258.344098,38.2662222 259.176098,38.22 C260.112098,38.168 260.944098,38.09 261.672098,37.986 C265.000098,37.466 267.736598,36.361 269.881598,34.671 C272.026598,32.981 273.612598,30.8555 274.639598,28.2945 C275.666598,25.7335 276.180098,22.88 276.180098,19.734 C276.180098,16.588 275.673098,13.7345 274.659098,11.1735 C273.645098,8.6125 272.065598,6.487 269.920598,4.797 C267.775598,3.107 265.026098,2.002 261.672098,1.482 C260.944098,1.352 260.118598,1.2675 259.195598,1.2285 C258.272598,1.1895 257.538098,1.17 256.992098,1.17 L256.992098,1.17 L233.280098,1.17 L233.280098,57.33 L243.888098,57.33 Z M256.524098,28.392 L243.888098,28.392 L243.888098,11.076 L256.524098,11.076 C257.070098,11.076 257.668098,11.102 258.318098,11.154 C258.968098,11.206 259.566098,11.31 260.112098,11.466 C261.542098,11.856 262.647098,12.5125 263.427098,13.4355 C264.207098,14.3585 264.746598,15.3855 265.045598,16.5165 C265.344598,17.6475 265.494098,18.72 265.494098,19.734 C265.494098,20.748 265.344598,21.8205 265.045598,22.9515 C264.746598,24.0825 264.207098,25.1095 263.427098,26.0325 C262.647098,26.9555 261.542098,27.612 260.112098,28.002 C259.566098,28.158 258.968098,28.262 258.318098,28.314 C257.668098,28.366 257.070098,28.392 256.524098,28.392 L256.524098,28.392 Z M291.803114,57.33 L291.803114,-2.27373675e-13 L281.195114,-2.27373675e-13 L281.195114,57.33 L291.803114,57.33 Z M311.63813,58.5 C315.27813,58.5 318.28763,57.8695 320.66663,56.6085 C322.419578,55.6793421 324.084298,54.3231648 325.660791,52.5399681 L325.99,52.16 L325.99013,57.33 L335.27213,57.33 L335.27213,31.59 C335.27213,29.666 335.19413,27.924 335.03813,26.364 C334.88213,24.804 334.38813,23.244 333.55613,21.684 C332.07413,18.876 329.89013,16.9 327.00413,15.756 C324.11813,14.612 320.81613,14.04 317.09813,14.04 C312.02813,14.04 308.02413,15.132 305.08613,17.316 C302.14813,19.5 300.14613,22.334 299.08013,25.818 L299.08013,25.818 L308.67413,28.86 C309.35013,26.936 310.53313,25.597 312.22313,24.843 C313.91313,24.089 315.53813,23.712 317.09813,23.712 C319.90613,23.712 321.90813,24.297 323.10413,25.467 C324.015368,26.3584286 324.579468,27.6347279 324.79643,29.295898 L324.814,29.447 L324.01088,29.566875 C322.80968,29.746275 321.65216,29.918395 320.53832,30.083235 L319.71113,30.2055 C316.98113,30.6085 314.53713,31.031 312.37913,31.473 C310.22113,31.915 308.36213,32.422 306.80213,32.994 C304.54013,33.826 302.73963,34.8595 301.40063,36.0945 C300.06163,37.3295 299.09313,38.753 298.49513,40.365 C297.89713,41.977 297.59813,43.758 297.59813,45.708 C297.59813,48.048 298.13763,50.1865 299.21663,52.1235 C300.29563,54.0605 301.88163,55.6075 303.97463,56.7645 C306.06763,57.9215 308.62213,58.5 311.63813,58.5 Z M313.90013,50.154 C312.67813,50.154 311.62513,49.972 310.74113,49.608 C309.85713,49.244 309.17463,48.7175 308.69363,48.0285 C308.21263,47.3395 307.97213,46.514 307.97213,45.552 C307.97213,44.85 308.12163,44.213 308.42063,43.641 C308.71963,43.069 309.18763,42.5425 309.82463,42.0615 C310.46163,41.5805 311.30013,41.132 312.34013,40.716 C313.25013,40.378 314.30313,40.066 315.49913,39.78 C316.69513,39.494 318.26813,39.1755 320.21813,38.8245 C321.43688,38.605125 322.889224,38.3527422 324.575161,38.0673516 L324.721,38.043 L324.72029,38.07648 C324.70209,38.68488 324.672515,39.356655 324.631565,40.091805 L324.60563,40.5405 C324.51463,42.0615 324.19613,43.394 323.65013,44.538 C323.36413,45.136 322.82463,45.877 322.03163,46.761 C321.23863,47.645 320.17263,48.4315 318.83363,49.1205 C317.49463,49.8095 315.85013,50.154 313.90013,50.154 Z M354.717146,76.05 L378.507146,15.21 L367.899146,15.21 L356.897,43.871 L345.825146,15.21 L334.827146,15.21 L351.817,56.998 L344.889146,76.05 L354.717146,76.05 Z M401.072163,58.5 C404.946163,58.5 408.339163,57.525 411.251163,55.575 C414.163163,53.625 416.431663,50.973 418.056663,47.619 C419.681663,44.265 420.494163,40.482 420.494163,36.27 C420.494163,31.98 419.668663,28.1645 418.017663,24.8235 C416.366663,21.4825 414.046163,18.85 411.056163,16.926 C408.066163,15.002 404.556163,14.04 400.526163,14.04 C396.842483,14.04 393.69796,14.86524 391.092593,16.51572 L391.01,16.57 L391.010163,1.17 L380.324163,1.17 L380.324163,57.33 L389.684163,57.33 L389.684,54.909 L389.864418,55.05038 C389.981246,55.1404707 390.099389,55.2292344 390.218846,55.3166711 L390.581163,55.575 C393.389163,57.525 396.886163,58.5 401.072163,58.5 Z M399.356163,49.062 C396.990163,49.062 395.098663,48.529 393.681663,47.463 C392.264663,46.397 391.244163,44.902 390.620163,42.978 C389.996163,41.054 389.684163,38.818 389.684163,36.27 C389.684163,33.722 389.996163,31.486 390.620163,29.562 C391.244163,27.638 392.238663,26.143 393.603663,25.077 C394.968663,24.011 396.756163,23.478 398.966163,23.478 C401.332163,23.478 403.275663,24.0565 404.796663,25.2135 C406.317663,26.3705 407.442163,27.9175 408.170163,29.8545 C408.898163,31.7915 409.262163,33.93 409.262163,36.27 C409.262163,38.636 408.911163,40.7875 408.209163,42.7245 C407.507163,44.6615 406.428163,46.202 404.972163,47.346 C403.516163,48.49 401.644163,49.062 399.356163,49.062 Z M444.463179,58.5 C448.675179,58.5 452.386679,57.5575 455.597679,55.6725 C458.808679,53.7875 461.317679,51.1745 463.124679,47.8335 C464.931679,44.4925 465.835179,40.638 465.835179,36.27 C465.835179,31.928 464.938179,28.0865 463.144179,24.7455 C461.350179,21.4045 458.847679,18.785 455.636679,16.887 C452.425679,14.989 448.701179,14.04 444.463179,14.04 C440.303179,14.04 436.624179,14.976 433.426179,16.848 C430.228179,18.72 427.719179,21.3265 425.899179,24.6675 C424.079179,28.0085 423.169179,31.876 423.169179,36.27 C423.169179,40.612 424.059679,44.4535 425.840679,47.7945 C427.621679,51.1355 430.111179,53.755 433.309179,55.653 C436.507179,57.551 440.225179,58.5 444.463179,58.5 Z M444.463179,48.594 C441.161179,48.594 438.658679,47.4825 436.955679,45.2595 C435.252679,43.0365 434.401179,40.04 434.401179,36.27 C434.401179,33.826 434.758679,31.681 435.473679,29.835 C436.188679,27.989 437.287179,26.546 438.769179,25.506 C440.251179,24.466 442.149179,23.946 444.463179,23.946 C447.817179,23.946 450.345679,25.064 452.048679,27.3 C453.751679,29.536 454.603179,32.526 454.603179,36.27 C454.603179,39.884 453.764679,42.8415 452.087679,45.1425 C450.410679,47.4435 447.869179,48.594 444.463179,48.594 Z M489.804195,58.5 C494.016195,58.5 497.727695,57.5575 500.938695,55.6725 C504.149695,53.7875 506.658695,51.1745 508.465695,47.8335 C510.272695,44.4925 511.176195,40.638 511.176195,36.27 C511.176195,31.928 510.279195,28.0865 508.485195,24.7455 C506.691195,21.4045 504.188695,18.785 500.977695,16.887 C497.766695,14.989 494.042195,14.04 489.804195,14.04 C485.644195,14.04 481.965195,14.976 478.767195,16.848 C475.569195,18.72 473.060195,21.3265 471.240195,24.6675 C469.420195,28.0085 468.510195,31.876 468.510195,36.27 C468.510195,40.612 469.400695,44.4535 471.181695,47.7945 C472.962695,51.1355 475.452195,53.755 478.650195,55.653 C481.848195,57.551 485.566195,58.5 489.804195,58.5 Z M489.804195,48.594 C486.502195,48.594 483.999695,47.4825 482.296695,45.2595 C480.593695,43.0365 479.742195,40.04 479.742195,36.27 C479.742195,33.826 480.099695,31.681 480.814695,29.835 C481.529695,27.989 482.628195,26.546 484.110195,25.506 C485.592195,24.466 487.490195,23.946 489.804195,23.946 C493.158195,23.946 495.686695,25.064 497.389695,27.3 C499.092695,29.536 499.944195,32.526 499.944195,36.27 C499.944195,39.884 499.105695,42.8415 497.428695,45.1425 C495.751695,47.4435 493.210195,48.594 489.804195,48.594 Z M526.955212,57.33 L526.955212,37.05 L541.541212,57.33 L555.347212,57.33 L539.123212,36.27 L554.333212,15.21 L541.229212,15.21 L526.955212,35.49 L526.955212,1.17 L516.191212,1.17 L516.113212,57.33 L526.955212,57.33 Z" id="Playbook" fill="#CA9E4A"></path>
        </g>
    </g>
</svg>