<svg width="149" height="59" viewBox="0 0 149 59" fill="none" xmlns="http://www.w3.org/2000/svg">
<path d="M42.5785 53.4848C41.7411 52.8567 41.3224 52.0193 41.1131 51.1819C40.9037 50.3445 40.9037 49.2977 41.1131 48.4603C41.3224 47.6229 41.9505 46.7855 42.5785 46.1574C43.2066 45.5294 44.044 45.1107 45.0908 44.9013C45.9282 44.692 46.9749 44.692 48.0217 45.1107C48.8591 45.32 49.6965 45.7387 50.1152 46.1574C50.7433 46.5761 51.162 47.2042 51.5807 47.8322C50.9526 48.251 50.5339 48.4603 49.6965 48.879C49.2778 48.0416 48.4404 47.4135 47.3936 47.2042C46.7656 46.9948 46.1375 46.9948 45.7188 47.2042C45.0908 47.4135 44.6721 47.6229 44.2534 48.0416C43.8347 48.4603 43.6253 48.879 43.4159 49.5071C43.2066 50.1351 43.2066 50.5538 43.4159 51.1819C43.6253 51.8099 43.8347 52.2287 44.2534 52.6474C44.6721 53.0661 45.3001 53.2754 45.9282 53.4848C46.9749 53.6941 48.0217 53.6941 48.8591 53.0661C49.2778 53.6941 49.6965 54.1128 50.1152 54.7409C49.4872 55.1596 48.6498 55.3689 48.0217 55.5783C47.1843 55.7876 46.3469 55.5783 45.3001 55.3689C44.2534 54.7409 43.4159 54.3222 42.5785 53.4848Z" fill="#DBBD82"/>
<path d="M60.5829 47.832C61.4203 48.0414 62.0484 48.0414 62.8858 48.0414C62.6764 50.763 62.2577 53.2752 62.0484 55.9968C64.1419 56.2061 65.398 56.2061 67.4915 56.4155C67.4915 57.2529 67.4915 57.4622 67.4915 58.2997C64.7699 58.0903 62.0484 57.8809 59.5361 57.6716C59.7455 54.322 60.1642 50.9723 60.5829 47.832Z" fill="#DBBD82"/>
<path d="M77.7495 57.2529C76.9121 56.4155 76.4934 55.3687 76.2841 53.9033C76.2841 51.6004 76.2841 50.5536 76.0747 48.4601C76.9121 48.4601 77.5402 48.4601 78.3776 48.4601C78.5869 50.5536 78.5869 51.8097 78.5869 53.9033C78.5869 55.5781 79.6337 56.4155 81.0992 56.4155C81.9366 56.4155 82.5646 55.9968 82.774 55.5781C83.1927 55.1594 83.1927 54.5313 83.1927 53.4845C82.9833 51.391 82.774 50.1349 82.5646 48.0414C83.4021 48.0414 84.0301 47.832 84.8675 47.832C85.0769 49.9256 85.2862 51.1817 85.4956 53.2752C85.7049 54.7407 85.2862 55.7874 84.6582 56.8342C83.8208 57.6716 82.774 58.2997 81.0992 58.2997C79.8431 58.2997 78.5869 58.0903 77.7495 57.2529Z" fill="#DBBD82"/>
<path d="M104.756 49.2977C105.175 49.5071 105.594 49.9258 105.803 50.5538C106.013 51.3912 106.013 52.2287 105.384 52.8567C104.756 53.4848 103.71 54.1128 102.454 54.5315C100.151 55.1596 99.1039 55.3689 96.801 55.997C96.173 52.8567 95.3356 49.5071 94.7075 46.3668C96.5917 45.9481 97.6385 45.7387 99.5226 45.1107C100.779 44.692 101.616 44.692 102.454 44.9013C103.291 45.1107 103.71 45.7387 103.919 46.3668C104.128 46.7855 104.128 47.2042 103.919 47.6229C103.71 48.0416 103.5 48.4603 103.291 48.879C103.71 48.879 104.128 48.879 104.756 49.2977ZM97.2198 47.4135C97.4291 48.251 97.6385 48.6697 97.8478 49.7164C98.6852 49.5071 99.3133 49.2977 100.151 49.0884C100.779 48.879 101.197 48.6697 101.407 48.4603C101.616 48.251 101.616 47.8323 101.616 47.4135C101.407 46.9948 101.197 46.7855 100.988 46.7855C100.569 46.7855 100.151 46.7855 99.5226 46.7855C98.4759 46.9948 98.0572 47.2042 97.2198 47.4135ZM102.872 52.0193C103.082 51.8099 103.291 51.3912 103.082 50.9725C102.872 50.1351 102.035 49.9258 100.779 50.3445C99.732 50.5538 99.1039 50.7632 98.0572 51.1819C98.2665 52.2286 98.4759 52.6473 98.6852 53.4848C99.732 53.2754 100.36 53.0661 101.616 52.6474C102.244 52.6474 102.663 52.438 102.872 52.0193Z" fill="#DBBD82"/>
<path d="M5.31352 32.9686H0.289062V0.30957H5.31352V14.3362H11.1754V0.30957H16.4092V32.7592H11.1754V18.7326H5.31352V32.9686Z" fill="#DBBD82"/>
<path d="M34.2038 0.30957V25.4319C34.2038 27.7347 35.2505 28.5722 36.9254 28.5722C38.6002 28.5722 39.6469 27.7347 39.6469 25.4319V0.30957H44.462V25.0132C44.462 30.247 41.9498 33.1779 36.9254 33.1779C31.9009 33.1779 29.3887 30.247 29.3887 25.0132V0.30957H34.2038Z" fill="#DBBD82"/>
<path d="M63.9318 0.100098C68.9563 0.100098 71.4685 3.03104 71.4685 8.26485V9.31161H66.6534V8.0555C66.6534 5.75262 65.816 4.91521 64.1412 4.91521C62.4664 4.91521 61.629 5.75262 61.629 8.0555C61.629 14.7548 71.6779 16.0109 71.6779 25.2224C71.6779 30.4562 69.1656 33.3871 64.1412 33.3871C59.1167 33.3871 56.6045 30.4562 56.6045 25.2224V23.1289H61.4196V25.4318C61.4196 27.7346 62.4664 28.5721 64.1412 28.5721C65.816 28.5721 66.8628 27.7346 66.8628 25.4318C66.8628 18.7325 56.8138 17.4764 56.8138 8.26485C56.3951 3.03104 58.9074 0.100098 63.9318 0.100098Z" fill="#DBBD82"/>
<path d="M82.1459 0.30957H97.8473V4.91532H92.4041V32.7592H87.3797V5.12467H81.9365V0.30957H82.1459Z" fill="#DBBD82"/>
<path d="M109.571 0.30957H114.596V28.1534H122.97V32.7592H109.362V0.30957H109.571Z" fill="#DBBD82"/>
<path d="M139.718 14.1268H146.836V18.7326H139.718V28.1534H148.511V32.7592H134.484V0.30957H148.511V4.91532H139.718V14.1268Z" fill="#DBBD82"/>
</svg>
