<svg width="79" height="79" viewBox="0 0 79 79" fill="none" xmlns="http://www.w3.org/2000/svg">
<g clip-path="url(#clip0)">
<path d="M55.7564 29.265H29.3205L28.8838 25.8825C28.7855 25.1215 28.1374 24.5515 27.3701 24.5515H21.6331C20.7901 24.5515 20.1068 25.235 20.1068 26.0779C20.1068 26.9207 20.7901 27.6042 21.6331 27.6042H26.0281L29.0111 50.7118C29.0697 51.1657 29.3238 51.5516 29.6824 51.7891C29.3631 52.4447 29.1839 53.1805 29.1839 53.9576C29.1839 56.6954 31.4088 58.9227 34.1437 58.9227C36.8787 58.9227 39.1036 56.6953 39.1036 53.9576C39.1036 53.2793 38.967 52.6323 38.7199 52.0426H43.3473C43.1008 52.6315 42.9645 53.2778 42.9645 53.9551C42.9645 56.693 45.1895 58.9202 47.9244 58.9202C50.6593 58.9202 52.8843 56.6928 52.8843 53.9551C52.8843 52.93 52.5723 51.9765 52.0385 51.1847C52.137 50.9827 52.1924 50.7561 52.1924 50.5163C52.1924 49.6734 51.509 48.9899 50.666 48.9899H31.8669L31.4952 46.1112H51.6344C52.309 46.1112 52.9037 45.6684 53.0969 45.0219L57.219 31.2284C57.3569 30.7664 57.2686 30.2662 56.9806 29.8796C56.6925 29.4929 56.2386 29.265 55.7564 29.265ZM34.1437 55.87C33.0921 55.87 32.2366 55.012 32.2366 53.9576C32.2366 52.903 33.0921 52.0451 34.1437 52.0451C35.1954 52.0451 36.0509 52.903 36.0509 53.9576C36.0511 55.012 35.1954 55.87 34.1437 55.87ZM47.9246 55.8677C46.8729 55.8677 46.0174 55.0097 46.0174 53.9553C46.0174 52.9007 46.8729 52.0428 47.9246 52.0428C48.9762 52.0428 49.8317 52.9007 49.8317 53.9553C49.8317 55.0097 48.9761 55.8677 47.9246 55.8677ZM50.4974 43.0585H31.1011L29.7146 32.3177H53.7071L50.4974 43.0585Z" fill="#DBBD82"/>
<path d="M57.9812 0.668457H21.2508C17.187 0.668457 13.881 3.96217 13.881 8.01066V71.4617C13.881 75.5178 17.1808 78.8176 21.2369 78.8176H57.9953C62.0514 78.8176 65.3512 75.5178 65.3512 71.4617V8.01066C65.351 3.96217 62.045 0.668457 57.9812 0.668457V0.668457ZM16.9337 8.01066C16.9337 5.64543 18.8703 3.72116 21.2508 3.72116H57.9814C60.3619 3.72116 62.2985 5.64528 62.2985 8.01066V63.5798H16.9337V8.01066ZM62.2983 71.4617C62.2983 73.8345 60.368 75.7649 57.9951 75.7649H21.2368C18.864 75.7649 16.9335 73.8345 16.9335 71.4617V66.6325H62.2983V71.4617Z" fill="#DBBD82"/>
<path d="M38.5984 72.7251H40.6335C41.4765 72.7251 42.1598 72.0416 42.1598 71.1987C42.1598 70.3559 41.4765 69.6724 40.6335 69.6724H38.5984C37.7554 69.6724 37.072 70.3559 37.072 71.1987C37.072 72.0416 37.7555 72.7251 38.5984 72.7251Z" fill="#DBBD82"/>
<path d="M32.3675 9.75827H46.8646C47.7076 9.75827 48.391 9.07477 48.391 8.23192C48.391 7.38907 47.7076 6.70557 46.8646 6.70557H32.3675C31.5245 6.70557 30.8412 7.38907 30.8412 8.23192C30.8412 9.07477 31.5245 9.75827 32.3675 9.75827Z" fill="#DBBD82"/>
</g>
<defs>
<clipPath id="clip0">
<rect width="78.1492" height="78.1492" fill="white" transform="translate(0.541435 0.668457)"/>
</clipPath>
</defs>
</svg>
