<svg width="69" height="70" viewBox="0 0 69 70" fill="none" xmlns="http://www.w3.org/2000/svg">
<g clip-path="url(#clip0)">
<path d="M55.8557 22.5159L55.8588 22.5131C55.8099 22.5102 55.7607 22.5085 55.7111 22.5085C55.7599 22.5085 55.8076 22.513 55.8557 22.5159Z" fill="#DBBD82"/>
<path d="M15.6437 42.14L7.88538 48.15C7.3001 48.6034 7.19313 49.4454 7.64663 50.0306C7.91085 50.3717 8.30698 50.5502 8.70726 50.5502C8.99414 50.5502 9.28302 50.4585 9.52727 50.2694L17.2856 44.2594C17.8709 43.806 17.9779 42.964 17.5244 42.3787C17.0707 41.7935 16.2289 41.6866 15.6437 42.14Z" fill="#DBBD82"/>
<path d="M43.5344 42.3787C43.0809 42.964 43.1879 43.806 43.7732 44.2595L51.5317 50.2695C51.7759 50.4587 52.0649 50.5504 52.3517 50.5504C52.752 50.5504 53.1481 50.3717 53.4123 50.0308C53.8658 49.4455 53.7588 48.6035 53.1736 48.15L45.4151 42.14C44.8298 41.6866 43.988 41.7935 43.5344 42.3787Z" fill="#DBBD82"/>
<path d="M58.2601 11.8301C53.2985 11.8301 49.117 15.2332 47.9265 19.8277H5.34773C5.26395 19.8277 5.18043 19.83 5.09718 19.834C5.06541 19.8356 5.03405 19.8387 5.00241 19.8408C4.9516 19.8443 4.9008 19.8475 4.85026 19.8525C4.81165 19.8563 4.77318 19.8616 4.7347 19.8663C4.69181 19.8715 4.64891 19.8764 4.60628 19.8827C4.56486 19.8888 4.52384 19.8963 4.48268 19.9034C4.44354 19.9103 4.40453 19.9167 4.36565 19.9244C4.32316 19.9328 4.28107 19.9425 4.23884 19.952C4.20184 19.9603 4.16484 19.9685 4.12798 19.9776C4.08535 19.9882 4.04312 20 4.00076 20.0116C3.9651 20.0215 3.92958 20.0313 3.89419 20.0419C3.85169 20.0547 3.80947 20.0685 3.76724 20.0824C3.73292 20.0938 3.69861 20.1052 3.66456 20.1173C3.62219 20.1323 3.58024 20.1481 3.53828 20.1643C3.5053 20.177 3.47246 20.1898 3.43975 20.2032C3.39739 20.2206 3.35529 20.2387 3.31334 20.2572C3.28237 20.2709 3.25154 20.2848 3.22084 20.2992C3.17781 20.3193 3.13518 20.3399 3.09268 20.3612C3.0644 20.3754 3.03611 20.3899 3.0081 20.4047C2.96386 20.4279 2.92002 20.4519 2.87646 20.4764C2.85166 20.4903 2.82699 20.5045 2.80232 20.519C2.75621 20.5461 2.71036 20.5738 2.66505 20.6025C2.64441 20.6155 2.62376 20.6288 2.60325 20.6422C2.55486 20.6737 2.50687 20.706 2.45942 20.7393C2.44319 20.7507 2.42697 20.7622 2.41089 20.7739C2.36008 20.8105 2.30968 20.8479 2.26008 20.8863C2.24815 20.8956 2.23635 20.905 2.22455 20.9143C2.172 20.9559 2.12013 20.9983 2.06919 21.0421C2.0602 21.0499 2.05122 21.0576 2.04224 21.0654C1.98996 21.1109 1.93835 21.1574 1.88768 21.2051C1.88406 21.2086 1.88017 21.2117 1.87655 21.2152C1.87454 21.217 1.87293 21.2192 1.87105 21.2209C0.903323 22.1411 0.29834 23.4392 0.29834 24.8771V52.6066C0.29834 55.3909 2.56344 57.656 5.34773 57.656H55.7111C58.4954 57.656 60.7605 55.3909 60.7605 52.6066V32.8785C65.4431 31.7498 68.9337 27.5279 68.9337 22.5037C68.9337 16.6182 64.1454 11.8301 58.2601 11.8301ZM5.34773 22.5086H47.5866C47.5876 24.6355 48.2163 26.6174 49.2938 28.283L34.0684 41.6642C32.0509 43.4373 29.0082 43.4376 26.9904 41.6642L5.20322 22.516C5.25135 22.5131 5.29894 22.5086 5.34773 22.5086ZM58.0795 52.6066H58.0794C58.0794 53.9125 57.0169 54.9749 55.7111 54.9749H5.34773C4.04192 54.9749 2.97941 53.9124 2.97941 52.6066V24.8771C2.97941 24.6472 3.01399 24.4256 3.07526 24.2153L25.2205 43.678C26.7339 45.0082 28.6313 45.6731 30.5295 45.6729C32.4271 45.6728 34.3253 45.0078 35.8385 43.678L51.0192 30.3362C52.8821 32.0597 55.3582 33.127 58.0795 33.1726V52.6066ZM60.7605 30.0934C59.9733 30.3535 59.1332 30.4961 58.2601 30.4961C58.1995 30.4961 58.1397 30.4929 58.0794 30.4915C56.1592 30.4486 54.4047 29.7259 53.0466 28.5541C52.3671 27.9677 51.7876 27.2697 51.336 26.4882C50.6586 25.3156 50.2685 23.9572 50.2676 22.5086C50.2676 22.5069 50.2674 22.5053 50.2674 22.5035C50.2674 21.5652 50.4314 20.6647 50.7296 19.8276C51.8328 16.7328 54.7912 14.511 58.26 14.511C62.6671 14.511 66.2525 18.0964 66.2525 22.5035C66.2526 26.0376 63.9464 29.0411 60.7605 30.0934Z" fill="#DBBD82"/>
<path d="M58.9671 17.8499C58.8132 17.7473 58.6419 17.696 58.4539 17.696C58.3256 17.696 58.2102 17.7389 58.1074 17.8243L56.5931 18.9792C56.3792 19.1161 56.2723 19.3173 56.2723 19.5823C56.2723 19.6833 56.2924 19.7775 56.3281 19.8665C56.3529 19.9284 56.3841 19.9882 56.4262 20.0443C56.5289 20.1811 56.6572 20.2496 56.8112 20.2496C56.9311 20.2496 57.0336 20.211 57.1193 20.1341L57.2003 20.0531C57.2301 20.0624 57.26 20.0719 57.2897 20.0817C57.2602 20.0719 57.231 20.0614 57.2012 20.0522L57.5298 19.7235V20.1675V24.6137V26.5759C57.5298 26.7385 57.6109 26.8668 57.7735 26.9609C57.8642 27.0136 57.9669 27.0498 58.0791 27.0729C58.1677 27.0912 58.262 27.102 58.3638 27.102C58.5861 27.102 58.7809 27.0551 58.9476 26.9609C59.1144 26.8668 59.1978 26.7385 59.1978 26.5759V18.2349H59.1982C59.1982 18.0809 59.1212 17.9526 58.9671 17.8499Z" fill="#DBBD82"/>
</g>
<defs>
<clipPath id="clip0">
<rect width="68.6354" height="68.6354" fill="white" transform="translate(0.29834 0.425293)"/>
</clipPath>
</defs>
</svg>
