<svg width="58" height="58" viewBox="0 0 58 58" fill="none" xmlns="http://www.w3.org/2000/svg">
<g clip-path="url(#clip0)">
<path d="M29.2763 57.9834C28.6198 57.9834 28.087 57.4506 28.087 56.7942V42.5235C28.087 41.867 28.6198 41.3342 29.2763 41.3342C29.9327 41.3342 30.4655 41.867 30.4655 42.5235V56.7942C30.4655 57.4506 29.9327 57.9834 29.2763 57.9834Z" fill="#DBBD82"/>
<path d="M39.9793 57.9836C39.7533 57.9836 39.525 57.9194 39.3205 57.7838L28.6174 50.6484C28.0704 50.2845 27.9229 49.5472 28.2868 49.0002C28.6507 48.4531 29.3857 48.3056 29.9351 48.6695L40.6381 55.8049C41.1852 56.1688 41.3326 56.9061 40.9687 57.4532C40.7404 57.7981 40.3622 57.9836 39.9793 57.9836Z" fill="#DBBD82"/>
<path d="M18.5732 57.9834C18.1879 57.9834 17.8121 57.7979 17.5814 57.453C17.2175 56.906 17.3649 56.1686 17.912 55.8047L28.615 48.6694C29.1621 48.3031 29.9018 48.4529 30.2633 49C30.6272 49.547 30.4797 50.2843 29.9327 50.6483L19.2297 57.7836C19.0299 57.9192 18.8015 57.9834 18.5732 57.9834Z" fill="#DBBD82"/>
<path d="M53.0608 12.7929H5.4917C2.86827 12.7929 0.734795 10.6594 0.734795 8.03596C0.734795 5.41252 2.86827 3.27905 5.4917 3.27905H53.0608C55.6842 3.27905 57.8177 5.41252 57.8177 8.03596C57.8177 10.6594 55.6842 12.7929 53.0608 12.7929ZM5.4917 5.65751C4.18117 5.65751 3.11325 6.72543 3.11325 8.03596C3.11325 9.34649 4.18117 10.4144 5.4917 10.4144H53.0608C54.3713 10.4144 55.4392 9.34649 55.4392 8.03596C55.4392 6.72543 54.3713 5.65751 53.0608 5.65751H5.4917Z" fill="#DBBD82"/>
<path d="M49.4931 43.7126H9.05939C7.09241 43.7126 5.49171 42.1119 5.49171 40.145V11.6035C5.49171 10.9471 6.02448 10.4143 6.68093 10.4143H51.8715C52.528 10.4143 53.0608 10.9471 53.0608 11.6035V40.145C53.0608 42.1119 51.4601 43.7126 49.4931 43.7126ZM7.87016 12.7928V40.145C7.87016 40.8014 8.40293 41.3342 9.05939 41.3342H49.4931C50.1495 41.3342 50.6823 40.8014 50.6823 40.145V12.7928H7.87016Z" fill="#DBBD82"/>
<path d="M16.1948 36.5775C15.8903 36.5775 15.5859 36.461 15.3528 36.2303C14.889 35.7665 14.889 35.0125 15.3528 34.5487L24.8666 25.0349C25.2685 24.6329 25.8965 24.5711 26.3674 24.885L32.5966 29.0378L41.4278 17.997C41.8392 17.488 42.5861 17.4 43.0998 17.8115C43.6112 18.223 43.6944 18.9698 43.2853 19.4836L33.7715 31.3758C33.3862 31.8563 32.6988 31.9681 32.1827 31.6232L25.8584 27.4086L17.0343 36.2326C16.8036 36.461 16.4992 36.5775 16.1948 36.5775Z" fill="#DBBD82"/>
</g>
<defs>
<clipPath id="clip0">
<rect width="57.0829" height="57.0829" fill="white" transform="translate(0.734802 0.900635)"/>
</clipPath>
</defs>
</svg>
