<svg width="325" height="293" viewBox="0 0 325 293" fill="none" xmlns="http://www.w3.org/2000/svg">
<g opacity="0.8">
<g style="mix-blend-mode:overlay">
<path d="M111 1.18369C133.833 -0.64964 193.3 11.1845 206.5 39.1845C223 74.1845 193 101.684 237.5 125.684C282 149.684 309.5 165.184 318.5 184.684C324.845 198.433 323.5 215.518 324 221.684" stroke="#DBDDDC"/>
</g>
<g style="mix-blend-mode:overlay">
<path d="M100 7.86729C122.833 6.03395 182.3 17.8681 195.5 45.8681C212 80.8681 182 108.368 226.5 132.368C271 156.368 298.5 171.868 307.5 191.368C313.845 205.116 312.5 222.201 313 228.368" stroke="#DBDDDC"/>
</g>
<g style="mix-blend-mode:overlay">
<path d="M91 16.8673C113.833 15.034 173.3 26.8681 186.5 54.8681C203 89.8681 173 117.368 217.5 141.368C262 165.368 289.5 180.868 298.5 200.368C304.845 214.116 303.5 231.201 304 237.368" stroke="#DBDDDC"/>
</g>
<g style="mix-blend-mode:overlay">
<path d="M81 27.8673C103.833 26.034 163.3 37.8681 176.5 65.8681C193 100.868 163 128.368 207.5 152.368C252 176.368 279.5 191.868 288.5 211.368C294.845 225.116 293.5 242.201 294 248.368" stroke="#DBDDDC"/>
</g>
<g style="mix-blend-mode:overlay">
<path d="M68 36.8673C90.8333 35.034 150.3 46.8681 163.5 74.8681C180 109.868 150 137.368 194.5 161.368C239 185.368 266.5 200.868 275.5 220.368C281.845 234.116 280.5 251.201 281 257.368" stroke="#DBDDDC"/>
</g>
<g style="mix-blend-mode:overlay">
<path d="M54 42.8673C76.8333 41.034 136.3 52.8681 149.5 80.8681C166 115.868 136 143.368 180.5 167.368C225 191.368 252.5 206.868 261.5 226.368C267.845 240.116 266.5 257.201 267 263.368" stroke="#DBDDDC"/>
</g>
<g style="mix-blend-mode:overlay">
<path d="M41 49.8673C63.8333 48.034 123.3 59.8681 136.5 87.8681C153 122.868 123 150.368 167.5 174.368C212 198.368 239.5 213.868 248.5 233.368C254.845 247.116 253.5 264.201 254 270.368" stroke="#DBDDDC"/>
</g>
<g style="mix-blend-mode:overlay">
<path d="M27 55.8673C49.8333 54.034 109.3 65.8681 122.5 93.8681C139 128.868 109 156.368 153.5 180.368C198 204.368 225.5 219.868 234.5 239.368C240.845 253.116 239.5 270.201 240 276.368" stroke="#DBDDDC"/>
</g>
<g style="mix-blend-mode:overlay">
<path d="M15 62.8673C37.8333 61.034 97.3 72.8681 110.5 100.868C127 135.868 97 163.368 141.5 187.368C186 211.368 213.5 226.868 222.5 246.368C228.845 260.116 227.5 277.201 228 283.368" stroke="#DBDDDC"/>
</g>
<g style="mix-blend-mode:overlay">
<path d="M1 71.8673C23.8333 70.034 83.3 81.8681 96.5 109.868C113 144.868 83 172.368 127.5 196.368C172 220.368 199.5 235.868 208.5 255.368C214.845 269.116 213.5 286.201 214 292.368" stroke="#DBDDDC"/>
</g>
</g>
</svg>
