<svg width="411" height="526" viewBox="0 0 411 526" fill="none" xmlns="http://www.w3.org/2000/svg">
<g opacity="0.8">
<g style="mix-blend-mode:overlay">
<path d="M17.3508 152.5C8.68409 172.167 -14.6493 217.5 17.3508 273C51.5157 332.255 72.8863 293.349 121.851 362C170.351 430 135.705 456.267 154.851 489C170.351 515.5 226.851 526.167 241.351 524.5" stroke="#DBDDDC"/>
</g>
<g style="mix-blend-mode:overlay">
<path d="M30.2013 142C21.5347 161.667 -1.7987 207 30.2013 262.5C64.3663 321.755 85.7369 282.849 134.701 351.5C183.201 419.5 148.555 445.767 167.701 478.5C183.201 505 239.701 515.667 254.201 514" stroke="#DBDDDC"/>
</g>
<g style="mix-blend-mode:overlay">
<path d="M46.2013 133C37.5347 152.667 14.2013 198 46.2013 253.5C80.3663 312.755 101.737 273.849 150.701 342.5C199.201 410.5 164.555 436.767 183.701 469.5C199.201 496 255.701 506.667 270.201 505" stroke="#DBDDDC"/>
</g>
<g style="mix-blend-mode:overlay">
<path d="M64.2013 124C55.5347 143.667 32.2013 189 64.2013 244.5C98.3663 303.755 119.737 264.849 168.701 333.5C217.201 401.5 182.555 427.767 201.701 460.5C217.201 487 273.701 497.667 288.201 496" stroke="#DBDDDC"/>
</g>
<g style="mix-blend-mode:overlay">
<path d="M81.2013 112C72.5347 131.667 49.2013 177 81.2013 232.5C115.366 291.755 136.737 252.849 185.701 321.5C234.201 389.5 199.555 415.767 218.701 448.5C234.201 475 290.701 485.667 305.201 484" stroke="#DBDDDC"/>
</g>
<g style="mix-blend-mode:overlay">
<path d="M97.2013 101C88.5347 120.667 65.2013 166 97.2013 221.5C131.366 280.755 152.737 241.849 201.701 310.5C250.201 378.5 215.555 404.767 234.701 437.5C250.201 464 306.701 474.667 321.201 473" stroke="#DBDDDC"/>
</g>
<g style="mix-blend-mode:overlay">
<path d="M112.201 87C103.535 106.667 80.2013 152 112.201 207.5C146.366 266.755 167.737 227.849 216.701 296.5C265.201 364.5 230.555 390.767 249.701 423.5C265.201 450 321.701 460.667 336.201 459" stroke="#DBDDDC"/>
</g>
<g style="mix-blend-mode:overlay">
<path d="M126.201 69C117.535 88.6667 94.2013 134 126.201 189.5C160.366 248.755 181.737 209.849 230.701 278.5C279.201 346.5 244.555 372.767 263.701 405.5C279.201 432 335.701 442.667 350.201 441" stroke="#DBDDDC"/>
</g>
<g style="mix-blend-mode:overlay">
<path d="M143.201 55C134.535 74.6667 111.201 120 143.201 175.5C177.366 234.755 198.737 195.849 247.701 264.5C296.201 332.5 261.555 358.767 280.701 391.5C296.201 418 352.701 428.667 367.201 427" stroke="#DBDDDC"/>
</g>
<g style="mix-blend-mode:overlay">
<path d="M154.201 39C145.535 58.6667 122.201 104 154.201 159.5C188.366 218.755 209.737 179.849 258.701 248.5C307.201 316.5 272.555 342.767 291.701 375.5C307.201 402 363.701 412.667 378.201 411" stroke="#DBDDDC"/>
</g>
<g style="mix-blend-mode:overlay">
<path d="M165.201 23C156.535 42.6667 133.201 88 165.201 143.5C199.366 202.755 220.737 163.849 269.701 232.5C318.201 300.5 283.555 326.767 302.701 359.5C318.201 386 374.701 396.667 389.201 395" stroke="#DBDDDC"/>
</g>
<g style="mix-blend-mode:overlay">
<path d="M176.201 11C167.535 30.6667 144.201 76 176.201 131.5C210.366 190.755 231.737 151.849 280.701 220.5C329.201 288.5 294.555 314.767 313.701 347.5C329.201 374 385.701 384.667 400.201 383" stroke="#DBDDDC"/>
</g>
<g style="mix-blend-mode:overlay">
<path d="M186.201 1C177.535 20.6667 154.201 66 186.201 121.5C220.366 180.755 241.737 141.849 290.701 210.5C339.201 278.5 304.555 304.767 323.701 337.5C339.201 364 395.701 374.667 410.201 373" stroke="#DBDDDC"/>
</g>
</g>
</svg>
