<svg width="507" height="367" viewBox="0 0 507 367" fill="none" xmlns="http://www.w3.org/2000/svg">
<g style="mix-blend-mode:overlay">
<path d="M511.5 12.2639C499.667 3.76391 456.1 -8.13611 404.5 12.2639C359 30.2523 363 66.2639 291 123.764C219 181.264 144.5 151.764 84.5 174.764C36.5 193.164 8.83333 259.764 1 290.764" stroke="#DBDDDC"/>
</g>
<g style="mix-blend-mode:overlay">
<path d="M511.5 31.5278C499.667 23.0278 456.1 11.1278 404.5 31.5278C359 49.5162 363 85.5278 291 143.028C219 200.528 144.5 171.028 84.5 194.028C36.5 212.428 8.83333 279.028 1 310.028" stroke="#DBDDDC"/>
</g>
<g style="mix-blend-mode:overlay">
<path d="M511.5 50.5278C499.667 42.0278 456.1 30.1278 404.5 50.5278C359 68.5162 363 104.528 291 162.028C219 219.528 144.5 190.028 84.5 213.028C36.5 231.428 8.83333 298.028 1 329.028" stroke="#DBDDDC"/>
</g>
<g style="mix-blend-mode:overlay">
<path d="M511.5 68.5278C499.667 60.0278 456.1 48.1278 404.5 68.5278C359 86.5162 363 122.528 291 180.028C219 237.528 144.5 208.028 84.5 231.028C36.5 249.428 8.83333 316.028 1 347.028" stroke="#DBDDDC"/>
</g>
<g style="mix-blend-mode:overlay">
<path d="M511.5 87.5278C499.667 79.0278 456.1 67.1278 404.5 87.5278C359 105.516 363 141.528 291 199.028C219 256.528 144.5 227.028 84.5 250.028C36.5 268.428 8.83333 335.028 1 366.028" stroke="#DBDDDC"/>
</g>
</svg>
