<svg width="183" height="148" viewBox="0 0 183 148" fill="none" xmlns="http://www.w3.org/2000/svg">
<g style="mix-blend-mode:overlay">
<path d="M-5 56.0002C5.66667 54.1668 24 52.4001 36 64.0001C51 78.5001 51.3452 93.9161 67.5 104.5C82 114 101 99.5002 118.5 117.5C132.5 131.9 140.333 143.5 142.5 147.5" stroke="#DBDDDC"/>
</g>
<g style="mix-blend-mode:overlay">
<path d="M-5 42.3342C5.66667 40.5008 24 38.7341 36 50.3341C51 64.8341 51.3452 80.25 67.5 90.8341C82 100.334 101 85.8341 118.5 103.834C132.5 118.234 149.833 143.5 152 147.5" stroke="#DBDDDC"/>
</g>
<g style="mix-blend-mode:overlay">
<path d="M-5 28.3342C5.66667 26.5008 24 24.7341 36 36.3341C51 50.8341 51.3452 66.25 67.5 76.8341C82 86.3341 101 71.8341 118.5 89.8341C132.5 104.234 159.333 143 161.5 147" stroke="#DBDDDC"/>
</g>
<g style="mix-blend-mode:overlay">
<path d="M-5 15.3342C5.66667 13.5008 24 11.7341 36 23.3341C51 37.8341 51.3452 53.25 67.5 63.8341C82 73.3341 101 58.8341 118.5 76.8341C132.5 91.2341 169.333 143 171.5 147" stroke="#DBDDDC"/>
</g>
<g style="mix-blend-mode:overlay">
<path d="M-5 2.33415C5.66667 0.500817 24 -1.26589 36 10.3341C51 24.8341 51.3452 40.25 67.5 50.8341C82 60.3341 101 45.8341 118.5 63.8341C132.5 78.2341 180.333 143 182.5 147" stroke="#DBDDDC"/>
</g>
</svg>
