<svg width="472" height="314" viewBox="0 0 472 314" fill="none" xmlns="http://www.w3.org/2000/svg">
<g filter="url(#filter0_d)">
<rect x="44" y="34" width="384" height="225.493" rx="16" fill="white"/>
<rect x="42" y="32" width="388" height="229.493" rx="18" stroke="#EDEDED" stroke-width="4"/>
</g>
<path d="M44 50C44 41.1634 51.1634 34 60 34H412C420.837 34 428 41.1634 428 50V55.6226H44V50Z" fill="#ECECEC"/>
<ellipse cx="67.2877" cy="45.841" rx="3.62264" ry="3.60377" fill="#CFCFCF"/>
<ellipse cx="84.3667" cy="45.841" rx="4.14016" ry="3.60377" fill="#CFCFCF"/>
<ellipse cx="101.445" cy="45.841" rx="3.62264" ry="3.60377" fill="#CFCFCF"/>
<path d="M421.952 80.1207H50.0469V235.528H421.952V80.1207Z" fill="white"/>
<path d="M315.129 103.181H266.73C265.622 103.181 264.725 104.079 264.725 105.186C264.725 106.294 265.622 107.192 266.73 107.192H315.129C316.236 107.192 317.134 106.294 317.134 105.186C317.134 104.079 316.236 103.181 315.129 103.181Z" fill="#E6E6E6"/>
<path d="M343.349 115.213H266.73C265.622 115.213 264.725 116.11 264.725 117.218C264.725 118.325 265.622 119.223 266.73 119.223H343.349C344.457 119.223 345.355 118.325 345.355 117.218C345.355 116.11 344.457 115.213 343.349 115.213Z" fill="#308EFF"/>
<path d="M329.239 126.241H267.738C266.63 126.241 265.732 127.139 265.732 128.247C265.732 129.354 266.63 130.252 267.738 130.252H329.239C330.346 130.252 331.244 129.354 331.244 128.247C331.244 127.139 330.346 126.241 329.239 126.241Z" fill="#E6E6E6"/>
<path d="M301.019 138.273H266.73C265.622 138.273 264.725 139.171 264.725 140.278C264.725 141.386 265.622 142.283 266.73 142.283H301.019C302.126 142.283 303.024 141.386 303.024 140.278C303.024 139.171 302.126 138.273 301.019 138.273Z" fill="#E6E6E6"/>
<path d="M320.168 149.302H266.73C265.622 149.302 264.725 150.2 264.725 151.307C264.725 152.415 265.622 153.312 266.73 153.312H320.168C321.276 153.312 322.173 152.415 322.173 151.307C322.173 150.2 321.276 149.302 320.168 149.302Z" fill="#308EFF"/>
<path d="M245.582 102.178H241.535C240.983 102.178 240.535 102.626 240.535 103.178V107.194C240.535 107.747 240.983 108.194 241.535 108.194H245.582C246.135 108.194 246.582 107.746 246.582 107.194V103.178C246.582 102.626 246.135 102.178 245.582 102.178Z" fill="#E6E6E6"/>
<path d="M245.582 113.207H241.535C240.983 113.207 240.535 113.655 240.535 114.207V119.226C240.535 119.778 240.983 120.226 241.535 120.226H245.582C246.135 120.226 246.582 119.778 246.582 119.226V114.207C246.582 113.655 246.135 113.207 245.582 113.207Z" fill="#6C63FF"/>
<path d="M245.582 124.236H241.535C240.983 124.236 240.535 124.684 240.535 125.236V130.255C240.535 130.807 240.983 131.255 241.535 131.255H245.582C246.135 131.255 246.582 130.807 246.582 130.255V125.236C246.582 124.684 246.135 124.236 245.582 124.236Z" fill="#E6E6E6"/>
<path d="M245.582 136.268H241.535C240.983 136.268 240.535 136.715 240.535 137.268V142.286C240.535 142.838 240.983 143.286 241.535 143.286H245.582C246.135 143.286 246.582 142.838 246.582 142.286V137.268C246.582 136.715 246.135 136.268 245.582 136.268Z" fill="#E6E6E6"/>
<path d="M245.582 148.299H241.535C240.983 148.299 240.535 148.747 240.535 149.299V154.318C240.535 154.87 240.983 155.318 241.535 155.318H245.582C246.135 155.318 246.582 154.87 246.582 154.318V149.299C246.582 148.747 246.135 148.299 245.582 148.299Z" fill="#6C63FF"/>
<path d="M315.129 161.333H266.73C265.622 161.333 264.725 162.231 264.725 163.339C264.725 164.446 265.622 165.344 266.73 165.344H315.129C316.236 165.344 317.134 164.446 317.134 163.339C317.134 162.231 316.236 161.333 315.129 161.333Z" fill="#E6E6E6"/>
<path d="M343.349 173.365H266.73C265.622 173.365 264.725 174.263 264.725 175.37C264.725 176.478 265.622 177.375 266.73 177.375H343.349C344.457 177.375 345.355 176.478 345.355 175.37C345.355 174.263 344.457 173.365 343.349 173.365Z" fill="#308EFF"/>
<path d="M329.239 184.394H267.738C266.63 184.394 265.732 185.291 265.732 186.399C265.732 187.506 266.63 188.404 267.738 188.404H329.239C330.346 188.404 331.244 187.506 331.244 186.399C331.244 185.291 330.346 184.394 329.239 184.394Z" fill="#E6E6E6"/>
<path d="M301.019 196.425H266.73C265.622 196.425 264.725 197.323 264.725 198.43C264.725 199.538 265.622 200.436 266.73 200.436H301.019C302.126 200.436 303.024 199.538 303.024 198.43C303.024 197.323 302.126 196.425 301.019 196.425Z" fill="#E6E6E6"/>
<path d="M320.168 207.454H266.73C265.622 207.454 264.725 208.352 264.725 209.459C264.725 210.567 265.622 211.465 266.73 211.465H320.168C321.276 211.465 322.173 210.567 322.173 209.459C322.173 208.352 321.276 207.454 320.168 207.454Z" fill="#E6E6E6"/>
<path d="M245.582 160.331H241.535C240.983 160.331 240.535 160.778 240.535 161.331V165.346C240.535 165.899 240.983 166.346 241.535 166.346H245.582C246.135 166.346 246.582 165.899 246.582 165.346V161.331C246.582 160.778 246.135 160.331 245.582 160.331Z" fill="#E6E6E6"/>
<path d="M245.582 171.36H241.535C240.983 171.36 240.535 171.807 240.535 172.36V177.378C240.535 177.93 240.983 178.378 241.535 178.378H245.582C246.135 178.378 246.582 177.93 246.582 177.378V172.36C246.582 171.807 246.135 171.36 245.582 171.36Z" fill="#6C63FF"/>
<path d="M245.582 182.388H241.535C240.983 182.388 240.535 182.836 240.535 183.388V188.407C240.535 188.959 240.983 189.407 241.535 189.407H245.582C246.135 189.407 246.582 188.959 246.582 188.407V183.388C246.582 182.836 246.135 182.388 245.582 182.388Z" fill="#E6E6E6"/>
<path d="M245.582 194.42H241.535C240.983 194.42 240.535 194.868 240.535 195.42V200.438C240.535 200.991 240.983 201.438 241.535 201.438H245.582C246.135 201.438 246.582 200.991 246.582 200.438V195.42C246.582 194.868 246.135 194.42 245.582 194.42Z" fill="#E6E6E6"/>
<path d="M245.582 206.451H241.535C240.983 206.451 240.535 206.899 240.535 207.451V212.47C240.535 213.022 240.983 213.47 241.535 213.47H245.582C246.135 213.47 246.582 213.022 246.582 212.47V207.451C246.582 206.899 246.135 206.451 245.582 206.451Z" fill="#E6E6E6"/>
<path d="M148.829 192.415H100.43C99.3226 192.415 98.4248 193.312 98.4248 194.42C98.4248 195.527 99.3226 196.425 100.43 196.425H148.829C149.936 196.425 150.834 195.527 150.834 194.42C150.834 193.312 149.936 192.415 148.829 192.415Z" fill="#3F3D56"/>
<path d="M155.885 202.441H93.3754C92.2679 202.441 91.3701 203.339 91.3701 204.446C91.3701 205.554 92.2679 206.451 93.3754 206.451H155.885C156.992 206.451 157.89 205.554 157.89 204.446C157.89 203.339 156.992 202.441 155.885 202.441Z" fill="#3F3D56"/>
<path d="M158.898 142.785C158.896 148.769 157.356 154.651 154.429 159.855C151.502 165.06 147.289 169.409 142.199 172.478C137.11 175.547 131.319 177.232 125.392 177.367C119.466 177.501 113.605 176.082 108.384 173.248L108.378 173.241C103.044 170.341 98.568 166.065 95.4048 160.85C92.2416 155.634 90.5046 149.665 90.3707 143.551C90.2368 137.438 91.7108 131.397 94.6426 126.046C97.5744 120.694 101.859 116.223 107.06 113.087C112.261 109.952 118.193 108.264 124.25 108.196C130.308 108.129 136.275 109.683 141.544 112.701C146.812 115.72 151.194 120.094 154.243 125.379C157.291 130.663 158.897 136.669 158.898 142.785Z" fill="#313131"/>
<path d="M124.63 141.281C129.64 141.281 133.701 137.016 133.701 131.756C133.701 126.495 129.64 122.231 124.63 122.231C119.621 122.231 115.56 126.495 115.56 131.756C115.56 137.016 119.621 141.281 124.63 141.281Z" fill="white"/>
<path d="M140.756 160.546C130.313 164.313 118.925 164.268 108.511 160.417L108.504 160.413L115.463 146.294H134.147L140.756 160.546Z" fill="white"/>
<defs>
<filter id="filter0_d" x="0" y="0" width="472" height="313.493" filterUnits="userSpaceOnUse" color-interpolation-filters="sRGB">
<feFlood flood-opacity="0" result="BackgroundImageFix"/>
<feColorMatrix in="SourceAlpha" type="matrix" values="0 0 0 0 0 0 0 0 0 0 0 0 0 0 0 0 0 0 127 0"/>
<feOffset dy="10"/>
<feGaussianBlur stdDeviation="20"/>
<feColorMatrix type="matrix" values="0 0 0 0 0 0 0 0 0 0 0 0 0 0 0 0 0 0 0.05 0"/>
<feBlend mode="normal" in2="BackgroundImageFix" result="effect1_dropShadow"/>
<feBlend mode="normal" in="SourceGraphic" in2="effect1_dropShadow" result="shape"/>
</filter>
</defs>
</svg>
