<svg width="472" height="315" viewBox="0 0 472 315" fill="none" xmlns="http://www.w3.org/2000/svg">
<g filter="url(#filter0_d)">
<rect x="44" y="34" width="384" height="227" rx="16" fill="white"/>
<rect x="42" y="32" width="388" height="231" rx="18" stroke="#EDEDED" stroke-width="4"/>
</g>
<path d="M202.814 78.1659C202.814 79.3212 202.615 80.3361 202.216 81.2107C201.817 82.0799 201.245 82.7493 200.501 83.219C199.763 83.6832 198.911 83.9154 197.946 83.9154C196.992 83.9154 196.14 83.6832 195.391 83.219C194.647 82.7493 194.07 82.0826 193.66 81.2188C193.256 80.355 193.051 79.359 193.046 78.2307V77.5666C193.046 76.4167 193.248 75.4018 193.652 74.5218C194.062 73.6419 194.636 72.9697 195.375 72.5055C196.119 72.0358 196.97 71.8009 197.93 71.8009C198.89 71.8009 199.739 72.0331 200.477 72.4974C201.221 72.9562 201.795 73.6203 202.2 74.4894C202.604 75.3532 202.809 76.36 202.814 77.5099V78.1659ZM200.768 77.5504C200.768 76.244 200.52 75.2425 200.024 74.5461C199.534 73.8497 198.836 73.5015 197.93 73.5015C197.046 73.5015 196.353 73.8497 195.852 74.5461C195.356 75.2371 195.103 76.217 195.092 77.4857V78.1659C195.092 79.4615 195.342 80.463 195.844 81.1702C196.35 81.8774 197.051 82.231 197.946 82.231C198.852 82.231 199.547 81.8855 200.032 81.1945C200.523 80.5035 200.768 79.4939 200.768 78.1659V77.5504Z" fill="#313131"/>
<path d="M209.962 82.895C209.386 83.5753 208.566 83.9154 207.504 83.9154C206.555 83.9154 205.836 83.6373 205.345 83.0813C204.86 82.5252 204.617 81.7208 204.617 80.6681V74.9915H206.582V80.6438C206.582 81.7559 207.043 82.312 207.965 82.312C208.919 82.312 209.563 81.9692 209.898 81.2836V74.9915H211.863V83.7534H210.011L209.962 82.895Z" fill="#313131"/>
<path d="M218.445 76.7892C218.186 76.746 217.919 76.7244 217.644 76.7244C216.744 76.7244 216.138 77.07 215.825 77.761V83.7534H213.86V74.9915H215.736L215.784 75.9713C216.259 75.2101 216.917 74.8295 217.757 74.8295C218.038 74.8295 218.27 74.8673 218.453 74.9429L218.445 76.7892Z" fill="#313131"/>
<path d="M230.881 78.4898H226.046V82.1176H231.698V83.7534H224V71.9629H231.642V73.6149H226.046V76.8702H230.881V78.4898Z" fill="#313131"/>
<path d="M236.315 77.8743L237.981 74.9915H240.165L237.488 79.3077L240.253 83.7534H238.086L236.34 80.7572L234.601 83.7534H232.418L235.183 79.3077L232.515 74.9915H234.682L236.315 77.8743Z" fill="#313131"/>
<path d="M249.165 79.4615C249.165 80.8166 248.857 81.899 248.243 82.7088C247.628 83.5132 246.803 83.9154 245.768 83.9154C244.809 83.9154 244.041 83.5996 243.464 82.9679V87.1221H241.499V74.9915H243.31L243.391 75.8823C243.968 75.1805 244.752 74.8295 245.744 74.8295C246.811 74.8295 247.647 75.229 248.251 76.028C248.86 76.8216 249.165 77.9256 249.165 79.3401V79.4615ZM247.208 79.2915C247.208 78.4169 247.032 77.7232 246.682 77.2103C246.337 76.6975 245.841 76.441 245.194 76.441C244.391 76.441 243.814 76.773 243.464 77.4371V81.324C243.819 82.0043 244.402 82.3444 245.21 82.3444C245.836 82.3444 246.324 82.0933 246.674 81.5913C247.03 81.0838 247.208 80.3172 247.208 79.2915Z" fill="#313131"/>
<path d="M254.687 83.9154C253.442 83.9154 252.431 83.524 251.655 82.7412C250.884 81.953 250.499 80.9057 250.499 79.5992V79.3563C250.499 78.4817 250.666 77.7016 251 77.016C251.34 76.325 251.814 75.7878 252.423 75.4045C253.032 75.0212 253.712 74.8295 254.461 74.8295C255.652 74.8295 256.572 75.2101 257.218 75.9713C257.871 76.7325 258.197 77.8096 258.197 79.2024V79.996H252.48C252.539 80.7194 252.779 81.2917 253.2 81.7127C253.625 82.1338 254.159 82.3444 254.801 82.3444C255.701 82.3444 256.434 81.98 257 81.2512L258.059 82.2634C257.709 82.7871 257.24 83.1947 256.652 83.4862C256.07 83.7723 255.415 83.9154 254.687 83.9154ZM254.453 76.4086C253.914 76.4086 253.477 76.5976 253.143 76.9755C252.814 77.3534 252.604 77.8797 252.512 78.5546H256.256V78.4088C256.213 77.7502 256.038 77.2535 255.731 76.9188C255.423 76.5787 254.997 76.4086 254.453 76.4086Z" fill="#313131"/>
<path d="M264.31 76.7892C264.051 76.746 263.784 76.7244 263.51 76.7244C262.609 76.7244 262.003 77.07 261.69 77.761V83.7534H259.725V74.9915H261.601L261.65 75.9713C262.124 75.2101 262.782 74.8295 263.623 74.8295C263.903 74.8295 264.135 74.8673 264.318 74.9429L264.31 76.7892Z" fill="#313131"/>
<path d="M268.418 72.8618V74.9915H269.962V76.4491H268.418V81.3402C268.418 81.675 268.483 81.9179 268.612 82.0691C268.747 82.2148 268.984 82.2877 269.324 82.2877C269.55 82.2877 269.779 82.2607 270.011 82.2067V83.7291C269.563 83.8533 269.132 83.9154 268.717 83.9154C267.208 83.9154 266.453 83.0813 266.453 81.4131V76.4491H265.014V74.9915H266.453V72.8618H268.418Z" fill="#313131"/>
<path d="M276.375 81.3726C276.375 81.0217 276.229 80.7545 275.938 80.5709C275.652 80.3874 275.175 80.2254 274.507 80.0851C273.838 79.9447 273.28 79.7666 272.833 79.5506C271.852 79.0755 271.361 78.3872 271.361 77.4857C271.361 76.7298 271.679 76.0982 272.315 75.5907C272.952 75.0833 273.76 74.8295 274.741 74.8295C275.787 74.8295 276.631 75.0887 277.272 75.6069C277.919 76.1252 278.243 76.7973 278.243 77.6233H276.278C276.278 77.2454 276.138 76.9323 275.857 76.684C275.577 76.4302 275.205 76.3034 274.741 76.3034C274.31 76.3034 273.957 76.4032 273.682 76.603C273.412 76.8027 273.278 77.07 273.278 77.4047C273.278 77.707 273.404 77.9418 273.658 78.1092C273.911 78.2765 274.423 78.4466 275.194 78.6194C275.965 78.7867 276.569 78.9892 277.005 79.2267C277.448 79.4588 277.774 79.7396 277.984 80.0689C278.2 80.3982 278.307 80.7977 278.307 81.2674C278.307 82.0556 277.981 82.6953 277.329 83.1866C276.677 83.6724 275.822 83.9154 274.766 83.9154C274.049 83.9154 273.41 83.7858 272.849 83.5267C272.288 83.2675 271.852 82.9112 271.539 82.4578C271.226 82.0043 271.07 81.5157 271.07 80.992H272.979C273.005 81.4563 273.181 81.8153 273.504 82.0691C273.828 82.3174 274.256 82.4416 274.79 82.4416C275.307 82.4416 275.701 82.3444 275.97 82.15C276.24 81.9503 276.375 81.6912 276.375 81.3726Z" fill="#313131"/>
<path d="M44 50C44 41.1634 51.1634 34 60 34H412C420.837 34 428 41.1634 428 50V55.7671H44V50Z" fill="#ECECEC"/>
<ellipse cx="67.2877" cy="45.9201" rx="3.62264" ry="3.62785" fill="#CFCFCF"/>
<ellipse cx="84.3667" cy="45.9201" rx="4.14016" ry="3.62785" fill="#CFCFCF"/>
<ellipse cx="101.445" cy="45.9201" rx="3.62264" ry="3.62785" fill="#CFCFCF"/>
<rect x="153.714" y="98.2648" width="164.571" height="7.25571" rx="3.62785" fill="#EDEDED"/>
<rect x="178.556" y="112.776" width="115.925" height="7.25571" rx="3.62785" fill="#EDEDED"/>
<rect x="196.15" y="128.324" width="83.8383" height="6.21918" rx="3.10959" fill="#EDEDED"/>
<path d="M277.988 193.21C277.993 200.185 276.312 207.058 273.09 213.242C269.867 219.425 265.197 224.735 259.48 228.719C257.87 229.848 256.183 230.864 254.433 231.759C253.852 232.058 253.267 232.341 252.672 232.61C252.135 232.856 251.595 233.087 251.048 233.307C244.256 236.061 236.879 237.047 229.605 236.172C228.346 236.023 227.103 235.818 225.877 235.557C225.825 235.546 225.769 235.534 225.717 235.523C223.148 234.979 220.635 234.196 218.211 233.184C210.986 230.18 204.71 225.268 200.054 218.972C195.398 212.675 192.536 205.231 191.773 197.433C191.011 189.635 192.376 181.775 195.724 174.694C199.072 167.612 204.277 161.574 210.783 157.223C217.289 152.872 224.853 150.372 232.667 149.989C240.481 149.606 248.252 151.355 255.151 155.05C262.05 158.744 267.818 164.245 271.84 170.966C275.862 177.686 277.987 185.374 277.988 193.21Z" fill="#F1F1F1"/>
<path d="M242.641 184.792C242.603 184.748 242.562 184.707 242.52 184.665C240.183 182.327 237.008 180.997 233.685 180.963C230.363 180.93 227.162 182.196 224.776 184.486C224.75 184.509 224.727 184.531 224.704 184.553C224.674 184.58 224.648 184.606 224.621 184.632C223.446 185.793 222.514 187.172 221.879 188.69C221.243 190.208 220.916 191.836 220.917 193.479V201.326C220.918 201.772 221.097 202.199 221.415 202.514C221.733 202.829 222.164 203.006 222.614 203.007H244.493C244.943 203.006 245.375 202.829 245.693 202.514C246.011 202.199 246.19 201.772 246.191 201.326V193.479C246.194 190.237 244.921 187.12 242.641 184.792Z" fill="#2F2E41"/>
<path d="M234.37 203.007C239.548 203.007 243.746 198.986 243.746 194.026C243.746 189.066 239.548 185.045 234.37 185.045C229.192 185.045 224.994 189.066 224.994 194.026C224.994 198.986 229.192 203.007 234.37 203.007Z" fill="#FFB7B7"/>
<path d="M243.736 193.023L242.655 185.915C242.621 185.697 242.503 185.498 242.323 185.357C242.262 185.312 242.196 185.273 242.125 185.242C236.589 182.803 230.975 182.803 225.439 185.235C225.365 185.267 225.296 185.308 225.234 185.357C225.212 185.375 225.189 185.396 225.167 185.417C225.019 185.561 224.927 185.748 224.906 185.947L224.183 193.065C224.171 193.186 224.186 193.309 224.227 193.425C224.268 193.541 224.334 193.648 224.421 193.738C224.562 193.884 224.752 193.981 224.958 194.012C225.009 194.022 225.06 194.027 225.111 194.026H226.945C227.123 194.025 227.296 193.978 227.446 193.888C227.596 193.799 227.715 193.672 227.791 193.521L228.585 191.921C228.636 191.817 228.722 191.732 228.829 191.678C228.936 191.625 229.058 191.605 229.178 191.623C229.298 191.641 229.408 191.695 229.493 191.777C229.577 191.86 229.63 191.966 229.644 192.079L229.801 193.258C229.83 193.469 229.939 193.664 230.11 193.805C230.28 193.947 230.498 194.025 230.725 194.026H242.815C242.973 194.027 243.129 193.988 243.266 193.914C243.361 193.865 243.447 193.801 243.519 193.724C243.607 193.629 243.671 193.517 243.709 193.396C243.746 193.275 243.755 193.147 243.736 193.023Z" fill="#2F2E41"/>
<path d="M256.628 220.133L259.235 228.607C257.616 229.707 255.919 230.697 254.159 231.571C253.575 231.861 252.986 232.138 252.387 232.4L249.686 221.158L248.637 216.798L255.38 216.07L256.628 220.133Z" fill="#FFB7B7"/>
<path d="M225.809 218.52L225.6 230.406L225.509 235.666C223.1 235.115 220.744 234.322 218.472 233.298L219.306 222.039L219.516 219.2L225.809 218.52Z" fill="#FFB7B7"/>
<path d="M256.894 220.14L250.206 221.144L250.288 222.244L251.094 233.329C244.35 236.064 237.023 237.043 229.799 236.174C228.549 236.026 227.315 235.823 226.096 235.563C226.644 233.259 227.117 231.184 226.533 230.776C226.357 230.653 226.19 230.517 226.033 230.369C223.307 227.764 224.313 221.885 224.313 221.885L219.368 222.159L217.655 222.255C217.655 222.255 218.395 210.399 221.724 210.399H225.793L245.398 208.547C245.398 208.547 250.946 206.694 252.426 209.288C253.203 210.648 254.586 213.53 255.729 215.968C256.765 218.183 257.604 220.032 257.604 220.032L256.894 220.14Z" fill="#2F2E41"/>
<path d="M398.647 194.924C398.575 201.951 396.841 208.86 393.586 215.085C390.331 221.309 385.648 226.673 379.922 230.734C379.823 230.803 379.719 230.876 379.616 230.949C379.509 231.025 379.398 231.102 379.287 231.175C378.643 231.62 377.987 232.046 377.318 232.452C376.375 233.028 375.411 233.569 374.426 234.075C374.395 234.09 374.361 234.106 374.33 234.121C373.763 234.413 373.191 234.689 372.614 234.95C372.595 234.957 372.579 234.965 372.56 234.973C372.426 235.034 372.285 235.099 372.147 235.157C371.078 235.632 369.986 236.066 368.875 236.45C367.929 236.783 366.969 237.082 365.995 237.347C364.003 237.897 361.974 238.305 359.924 238.567C358.176 238.792 356.416 238.913 354.653 238.928C354.507 238.931 354.362 238.931 354.216 238.931C353.255 238.931 352.297 238.901 351.351 238.839C350.524 238.786 349.704 238.713 348.892 238.613C347.64 238.463 346.402 238.264 345.184 238.003C345.131 237.995 345.077 237.984 345.023 237.972C344.981 237.965 344.935 237.953 344.893 237.946C343.667 237.689 342.461 237.374 341.277 237.013C340.162 236.676 339.068 236.295 337.994 235.87C337.719 235.763 337.447 235.655 337.175 235.54C336.497 235.257 335.826 234.961 335.168 234.643C334.976 234.555 334.788 234.462 334.601 234.37C333.965 234.06 333.337 233.734 332.724 233.388C331.984 232.978 331.258 232.547 330.544 232.096C329.644 231.528 328.763 230.93 327.909 230.297C320.32 224.713 314.698 216.859 311.856 207.868C309.013 198.877 309.097 189.214 312.094 180.273C315.091 171.333 320.848 163.577 328.532 158.125C336.216 152.674 345.432 149.808 354.848 149.942C379.213 150.281 398.91 170.524 398.647 194.924Z" fill="#F1F1F1"/>
<path d="M345.157 237.942C343.944 237.684 342.75 237.368 341.579 237.006L345.601 211.669L349.766 211.538L357.32 211.295L361.194 211.172C361.194 211.172 363.942 223.442 366.038 237.341C364.066 237.893 362.059 238.303 360.03 238.566C358.3 238.792 356.559 238.912 354.815 238.928C354.671 238.931 354.527 238.931 354.383 238.931C353.431 238.931 352.484 238.901 351.547 238.839C350.729 238.785 349.918 238.712 349.114 238.612C347.875 238.462 346.65 238.261 345.445 237.999C345.392 237.992 345.339 237.98 345.286 237.969C345.244 237.961 345.199 237.949 345.157 237.942Z" fill="#CBCBCB"/>
<path d="M345.228 238.115C345.175 238.107 345.121 238.096 345.067 238.084C345.024 238.077 344.978 238.065 344.936 238.057C343.703 237.801 342.489 237.486 341.298 237.126C340.177 236.789 339.076 236.408 337.995 235.984C337.718 235.877 337.444 235.769 337.171 235.654C336.489 235.371 335.814 235.076 335.152 234.758C334.959 234.669 334.77 234.577 334.581 234.485L334.242 215.606L344.647 211.172C344.647 211.172 344.681 211.448 349.621 211.781C350.562 214.832 345.228 238.115 345.228 238.115Z" fill="#2F2E41"/>
<path d="M375.803 214.15L373.902 224.594L374.081 234.039C373.529 234.336 372.971 234.617 372.408 234.882C372.389 234.89 372.375 234.898 372.356 234.906C372.225 234.968 372.087 235.035 371.953 235.093C370.911 235.577 369.846 236.019 368.763 236.409C367.841 236.749 366.905 237.053 365.955 237.323C364.013 237.883 362.035 238.298 360.036 238.564C358.331 238.794 356.616 238.916 354.897 238.931L354.699 222.193C354.281 216.797 355.667 213.229 357.366 210.917C366.422 209.652 366.22 209.539 366.22 209.539L375.821 214.056L375.803 214.15Z" fill="#2F2E41"/>
<path d="M339.134 216.736L338.433 235.666C338.157 235.558 337.885 235.451 337.613 235.335C336.935 235.051 336.265 234.756 335.606 234.437C335.414 234.349 335.227 234.257 335.039 234.165C334.403 233.854 333.774 233.527 333.161 233.182C332.422 232.771 331.695 232.34 330.981 231.888L334.702 215.254L339.134 216.736Z" fill="#2F2E41"/>
<path d="M379.898 229.972C379.797 230.038 379.693 230.108 379.588 230.178C379.48 230.251 379.368 230.325 379.255 230.395C378.604 230.821 377.941 231.229 377.264 231.618C376.312 232.169 375.337 232.687 374.34 233.172C374.309 233.187 374.274 233.202 374.243 233.216C373.653 233.504 373.057 233.776 372.455 234.033L372.454 234.032L371.745 215.852L376.029 214.5L376.226 214.438L379.898 229.972Z" fill="#2F2E41"/>
<path d="M364.562 196.821C366.258 191.03 362.957 184.963 357.189 183.27C351.421 181.577 345.371 184.898 343.676 190.689C341.981 196.48 345.282 202.547 351.05 204.24C356.817 205.934 362.867 202.612 364.562 196.821Z" fill="#9F616A"/>
<path d="M343.025 196.432V192.32C343.025 192.32 339.552 188.415 343.372 187.431C343.372 187.431 344.414 177.592 353.443 182.184C353.443 182.184 365.946 180.216 364.557 187.103C364.557 187.103 367.682 185.305 366.64 189.896L364.625 197.292C364.625 197.292 365.599 192.406 362.473 191.751L360.736 190.767C360.736 190.767 355.874 195.358 348.581 189.783C348.581 189.783 345.456 189.07 345.803 192.022C346.15 194.974 343.025 196.432 343.025 196.432Z" fill="#2F2E41"/>
<path d="M354.216 247.096C359.845 247.096 364.408 242.709 364.408 237.298C364.408 231.887 359.845 227.501 354.216 227.501C348.588 227.501 344.025 231.887 344.025 237.298C344.025 242.709 348.588 247.096 354.216 247.096Z" fill="#308EFF"/>
<path d="M352.8 241.381L349.732 237.283L351.516 235.841L352.969 237.781L357.875 232.4L359.516 234.015L352.8 241.381Z" fill="white"/>
<path d="M234.778 245.463C240.181 245.463 244.561 241.077 244.561 235.666C244.561 230.255 240.181 225.868 234.778 225.868C229.374 225.868 224.994 230.255 224.994 235.666C224.994 241.077 229.374 245.463 234.778 245.463Z" fill="#308EFF"/>
<path d="M233.769 239.748L230.701 236.022L232.485 234.712L233.937 236.476L238.844 231.583L240.485 233.051L233.769 239.748Z" fill="white"/>
<path d="M159.771 192.393C159.776 199.369 158.096 206.242 154.873 212.425C151.65 218.609 146.98 223.919 141.263 227.903C141.159 227.977 141.051 228.052 140.942 228.123C140.317 228.555 139.678 228.969 139.028 229.365C138.112 229.924 137.174 230.45 136.216 230.943C135.635 231.241 135.05 231.525 134.454 231.793C134.305 231.861 134.152 231.931 134 231.995C132.96 232.457 131.899 232.879 130.819 233.252C127.997 234.243 125.08 234.933 122.114 235.311C120.273 235.548 118.42 235.667 116.564 235.666C115.629 235.666 114.698 235.636 113.778 235.576C112.973 235.524 112.176 235.453 111.387 235.356C110.116 235.203 108.861 234.998 107.625 234.733C107.584 234.725 107.539 234.714 107.498 234.707C104.929 234.163 102.416 233.38 99.9925 232.368C99.3334 232.092 98.6816 231.805 98.0409 231.495C97.2326 231.114 96.4405 230.708 95.6645 230.275C88.9954 226.585 83.4191 221.194 79.5011 214.649C75.5831 208.105 73.4627 200.639 73.3549 193.009C73.2471 185.379 75.1557 177.856 78.8873 171.202C82.6188 164.549 88.0405 159.003 94.6027 155.125C101.165 151.247 108.634 149.176 116.253 149.122C123.873 149.068 131.371 151.032 137.987 154.816C144.604 158.6 150.104 164.069 153.93 170.668C157.755 177.267 159.77 184.762 159.771 192.393Z" fill="#F1F1F1"/>
<path d="M115.338 203.007C120.516 203.007 124.714 198.621 124.714 193.21C124.714 187.799 120.516 183.412 115.338 183.412C110.16 183.412 105.962 187.799 105.962 193.21C105.962 198.621 110.16 203.007 115.338 203.007Z" fill="#FFB8B8"/>
<path d="M111.294 235.355C110.044 235.201 108.809 234.995 107.592 234.729L108.747 208.183L108.912 208.007L111.276 205.457H118.795L121.57 208.202L121.805 208.438L127.74 214.247L130.42 233.242C127.643 234.237 124.771 234.93 121.852 235.31C120.041 235.548 118.216 235.667 116.39 235.666C115.47 235.666 114.554 235.636 113.648 235.576C112.856 235.523 112.072 235.452 111.294 235.355Z" fill="#CBCBCB"/>
<path d="M97.9398 231.559C97.1091 231.176 96.2949 230.767 95.4973 230.331C95.4169 223.124 95.3633 218.338 95.3633 218.338L96.2974 217.778C96.3085 217.773 96.32 217.768 96.3318 217.763L106.933 211.45L109.157 207.906L109.169 208.034L109.823 215.504C111.795 222.103 113.23 228.844 114.115 235.666C113.288 235.613 112.469 235.542 111.657 235.444C110.352 235.29 109.061 235.084 107.79 234.817C107.748 234.81 107.702 234.798 107.66 234.791C105.02 234.243 102.437 233.455 99.9458 232.437C99.2683 232.159 98.5984 231.87 97.9398 231.559Z" fill="#2F2E41"/>
<path d="M131.124 233.573C128.284 234.58 125.347 235.281 122.362 235.666C121.948 233.219 121.796 230.735 121.908 228.256C122.718 215.168 120.851 207.906 121.661 207.906L122.073 208.232L127.169 212.303L133.877 214.789H133.88L138.496 216.498L139.31 216.802V217.192C139.313 218.541 139.321 223.264 139.388 229.624C138.466 230.192 137.522 230.727 136.557 231.227C135.973 231.53 135.384 231.818 134.784 232.091C134.634 232.16 134.48 232.232 134.327 232.296C133.28 232.766 132.212 233.194 131.124 233.573Z" fill="#2F2E41"/>
<path d="M105.996 196.475C105.996 196.475 106.816 194.996 106.625 190.053C106.435 185.111 113.764 187.906 119.888 187.435C126.012 186.963 124.715 195.687 124.715 195.687C124.715 195.687 125.157 195.168 126.103 190.958C127.049 186.748 124.901 182.552 124.901 182.552C124.269 178.128 120.86 179.546 120.86 179.546C122.501 180.202 122.186 181.606 122.186 181.606C120.796 179.104 117.388 180.522 117.388 180.522C112.841 177.592 108.233 181.45 108.233 181.45C102.741 182.73 105.962 187.216 105.962 187.216C100.438 190.082 105.996 196.475 105.996 196.475Z" fill="#2F2E41"/>
<path d="M91.2861 227.304C91.4171 223.984 91.4755 221.843 91.4066 221.544C91.0522 219.988 95.8914 217.904 96.3319 217.719C96.3419 217.713 96.3522 217.708 96.3628 217.703L97.3473 218.281L97.8084 231.583C97.0616 231.198 96.3296 230.786 95.6126 230.348C94.112 229.437 92.6668 228.42 91.2861 227.304Z" fill="#2F2E41"/>
<path d="M139.026 228.975C138.072 229.53 137.097 230.052 136.1 230.54C135.495 230.836 134.887 231.117 134.267 231.383C134.112 231.45 133.953 231.52 133.794 231.583L132.05 215.148L133.069 214.438C133.069 214.438 133.162 214.46 133.329 214.497H133.333C134.15 214.689 136.662 215.325 138.104 216.165C138.425 216.339 138.71 216.569 138.944 216.842C139.087 217.005 139.158 217.215 139.142 217.427C139.096 217.856 139.871 221.925 141.018 227.743C140.367 228.173 139.703 228.583 139.026 228.975Z" fill="#2F2E41"/>
<path d="M116.561 245.463C121.964 245.463 126.344 241.077 126.344 235.666C126.344 230.255 121.964 225.868 116.561 225.868C111.158 225.868 106.777 230.255 106.777 235.666C106.777 241.077 111.158 245.463 116.561 245.463Z" fill="#308EFF"/>
<path d="M115.551 239.748L112.483 236.022L114.267 234.712L115.72 236.476L120.626 231.583L122.267 233.051L115.551 239.748Z" fill="white"/>
<defs>
<filter id="filter0_d" x="0" y="0" width="472" height="315" filterUnits="userSpaceOnUse" color-interpolation-filters="sRGB">
<feFlood flood-opacity="0" result="BackgroundImageFix"/>
<feColorMatrix in="SourceAlpha" type="matrix" values="0 0 0 0 0 0 0 0 0 0 0 0 0 0 0 0 0 0 127 0"/>
<feOffset dy="10"/>
<feGaussianBlur stdDeviation="20"/>
<feColorMatrix type="matrix" values="0 0 0 0 0 0 0 0 0 0 0 0 0 0 0 0 0 0 0.05 0"/>
<feBlend mode="normal" in2="BackgroundImageFix" result="effect1_dropShadow"/>
<feBlend mode="normal" in="SourceGraphic" in2="effect1_dropShadow" result="shape"/>
</filter>
</defs>
</svg>
