<svg width="472" height="315" viewBox="0 0 472 315" fill="none" xmlns="http://www.w3.org/2000/svg">
<g filter="url(#filter0_d)">
<rect x="44" y="34" width="384" height="227" rx="16" fill="white"/>
<rect x="42" y="32" width="388" height="231" rx="18" stroke="#EDEDED" stroke-width="4"/>
</g>
<path d="M44 50C44 41.1634 51.1634 34 60 34H412C420.837 34 428 41.1634 428 50V55.7671H44V50Z" fill="#ECECEC"/>
<ellipse cx="67.2877" cy="45.9201" rx="3.62264" ry="3.62785" fill="#CFCFCF"/>
<ellipse cx="84.3667" cy="45.9201" rx="4.14016" ry="3.62785" fill="#CFCFCF"/>
<ellipse cx="101.445" cy="45.9201" rx="3.62264" ry="3.62785" fill="#CFCFCF"/>
<rect x="113" y="70" width="246.124" height="173" rx="12" fill="#E0E0E0"/>
<path d="M174.098 117.263H137.511C135.302 117.263 133.511 119.054 133.511 121.263V141.799C133.511 144.008 135.302 145.799 137.511 145.799H174.098C176.308 145.799 178.098 144.008 178.098 141.799V121.263C178.098 119.054 176.308 117.263 174.098 117.263Z" fill="white"/>
<path d="M230.278 117.263H193.69C191.481 117.263 189.69 119.054 189.69 121.263V141.799C189.69 144.008 191.481 145.799 193.69 145.799H230.278C232.487 145.799 234.278 144.008 234.278 141.799V121.263C234.278 119.054 232.487 117.263 230.278 117.263Z" fill="white"/>
<path d="M285.567 117.263H248.979C246.77 117.263 244.979 119.054 244.979 121.263V141.799C244.979 144.008 246.77 145.799 248.979 145.799H285.567C287.776 145.799 289.567 144.008 289.567 141.799V121.263C289.567 119.054 287.776 117.263 285.567 117.263Z" fill="white"/>
<path d="M341.748 117.263H305.16C302.951 117.263 301.16 119.054 301.16 121.263V141.799C301.16 144.008 302.951 145.799 305.16 145.799H341.748C343.957 145.799 345.748 144.008 345.748 141.799V121.263C345.748 119.054 343.957 117.263 341.748 117.263Z" fill="white"/>
<path d="M174.098 159.175H137.511C135.302 159.175 133.511 160.966 133.511 163.175V183.711C133.511 185.92 135.302 187.711 137.511 187.711H174.098C176.308 187.711 178.098 185.92 178.098 183.711V163.175C178.098 160.966 176.308 159.175 174.098 159.175Z" fill="white"/>
<path d="M230.278 159.175H193.69C191.481 159.175 189.69 160.966 189.69 163.175V183.711C189.69 185.92 191.481 187.711 193.69 187.711H230.278C232.487 187.711 234.278 185.92 234.278 183.711V163.175C234.278 160.966 232.487 159.175 230.278 159.175Z" fill="white"/>
<path d="M285.567 159.175H248.979C246.77 159.175 244.979 160.966 244.979 163.175V183.711C244.979 185.92 246.77 187.711 248.979 187.711H285.567C287.776 187.711 289.567 185.92 289.567 183.711V163.175C289.567 160.966 287.776 159.175 285.567 159.175Z" fill="white"/>
<path d="M341.748 159.175H305.16C302.951 159.175 301.16 160.966 301.16 163.175V183.711C301.16 185.92 302.951 187.711 305.16 187.711H341.748C343.957 187.711 345.748 185.92 345.748 183.711V163.175C345.748 160.966 343.957 159.175 341.748 159.175Z" fill="white"/>
<path d="M174.098 199.304H137.511C135.302 199.304 133.511 201.095 133.511 203.304V225.624C133.511 227.833 135.302 229.624 137.511 229.624H174.098C176.308 229.624 178.098 227.833 178.098 225.624V203.304C178.098 201.095 176.308 199.304 174.098 199.304Z" fill="white"/>
<path d="M230.278 199.304H193.69C191.481 199.304 189.69 201.095 189.69 203.304V225.624C189.69 227.833 191.481 229.624 193.69 229.624H230.278C232.487 229.624 234.278 227.833 234.278 225.624V203.304C234.278 201.095 232.487 199.304 230.278 199.304Z" fill="white"/>
<path d="M285.567 199.304H248.979C246.77 199.304 244.979 201.095 244.979 203.304V225.624C244.979 227.833 246.77 229.624 248.979 229.624H285.567C287.776 229.624 289.567 227.833 289.567 225.624V203.304C289.567 201.095 287.776 199.304 285.567 199.304Z" fill="white"/>
<path d="M341.748 199.304H305.16C302.951 199.304 301.16 201.095 301.16 203.304V225.624C301.16 227.833 302.951 229.624 305.16 229.624H341.748C343.957 229.624 345.748 227.833 345.748 225.624V203.304C345.748 201.095 343.957 199.304 341.748 199.304Z" fill="white"/>
<path d="M183.448 70H178.098V101.211H183.448V70Z" fill="#313131"/>
<path d="M295.81 70H289.567V101.211H295.81V70Z" fill="#313131"/>
<path d="M181.219 106.562C184.913 106.562 187.908 103.368 187.908 99.4278C187.908 95.4878 184.913 92.2938 181.219 92.2938C177.526 92.2938 174.531 95.4878 174.531 99.4278C174.531 103.368 177.526 106.562 181.219 106.562Z" fill="#313131"/>
<path d="M292.688 106.562C296.382 106.562 299.376 103.368 299.376 99.4278C299.376 95.4878 296.382 92.2938 292.688 92.2938C288.994 92.2938 286 95.4878 286 99.4278C286 103.368 288.994 106.562 292.688 106.562Z" fill="#313131"/>
<path d="M334.155 131.54C334.152 133.903 333.259 136.185 331.639 137.967C330.018 139.75 327.78 140.913 325.334 141.244C322.889 141.574 320.401 141.049 318.328 139.766C316.254 138.482 314.735 136.526 314.049 134.257C313.362 131.988 313.555 129.558 314.592 127.414C315.628 125.27 317.439 123.555 319.691 122.586C321.943 121.616 324.485 121.457 326.85 122.136C329.215 122.816 331.245 124.289 332.565 126.286C333.605 127.858 334.157 129.68 334.155 131.54Z" fill="#308EFF"/>
<path d="M331.48 125.92L322.013 135.99C321.418 135.01 318.104 130.456 318.104 130.456C318.528 129.999 318.982 129.573 319.46 129.181L322.209 133.08L330.371 124.397C330.785 124.866 331.156 125.376 331.48 125.92Z" fill="white"/>
<path d="M221.793 173.007C221.791 175.477 220.936 177.863 219.386 179.726C217.836 181.59 215.695 182.806 213.356 183.152C211.017 183.497 208.637 182.949 206.654 181.607C204.671 180.265 203.218 178.22 202.561 175.847C201.905 173.475 202.089 170.935 203.081 168.693C204.072 166.452 205.804 164.659 207.958 163.646C210.112 162.632 212.544 162.465 214.806 163.176C217.069 163.886 219.01 165.427 220.273 167.514C221.268 169.157 221.795 171.062 221.793 173.007Z" fill="#308EFF"/>
<path d="M220.01 167.833L210.544 177.902C209.949 176.922 206.634 172.368 206.634 172.368C207.059 171.911 207.512 171.485 207.991 171.094L210.739 174.993L218.902 166.309C219.315 166.779 219.687 167.289 220.01 167.833Z" fill="white"/>
<path d="M165.614 173.007C165.611 175.477 164.718 177.863 163.098 179.726C161.477 181.59 159.238 182.806 156.793 183.152C154.348 183.497 151.86 182.949 149.787 181.607C147.713 180.265 146.194 178.22 145.508 175.847C144.821 173.475 145.014 170.935 146.051 168.693C147.087 166.452 148.898 164.659 151.15 163.646C153.402 162.632 155.944 162.465 158.309 163.176C160.674 163.886 162.704 165.427 164.024 167.514C165.064 169.157 165.616 171.062 165.614 173.007Z" fill="#308EFF"/>
<path d="M164.721 167.833L154.623 177.902C153.989 176.922 150.453 172.368 150.453 172.368C150.906 171.911 151.39 171.485 151.9 171.094L154.832 174.993L163.539 166.309C163.98 166.779 164.376 167.289 164.721 167.833Z" fill="white"/>
<defs>
<filter id="filter0_d" x="0" y="0" width="472" height="315" filterUnits="userSpaceOnUse" color-interpolation-filters="sRGB">
<feFlood flood-opacity="0" result="BackgroundImageFix"/>
<feColorMatrix in="SourceAlpha" type="matrix" values="0 0 0 0 0 0 0 0 0 0 0 0 0 0 0 0 0 0 127 0"/>
<feOffset dy="10"/>
<feGaussianBlur stdDeviation="20"/>
<feColorMatrix type="matrix" values="0 0 0 0 0 0 0 0 0 0 0 0 0 0 0 0 0 0 0.05 0"/>
<feBlend mode="normal" in2="BackgroundImageFix" result="effect1_dropShadow"/>
<feBlend mode="normal" in="SourceGraphic" in2="effect1_dropShadow" result="shape"/>
</filter>
</defs>
</svg>
