<svg width="203" height="52" viewBox="0 0 203 52" fill="none" xmlns="http://www.w3.org/2000/svg">
<path d="M14.085 12.8116C-1.36845 13.2058 -0.774077 36.7101 0.711799 51H10.8655C9.87468 42.6232 9.62722 29.8116 10.1225 26.3623C12.3514 17.4927 17.057 22.1739 17.057 27.1014V51H27.4583V29.0724C27.4583 20.4492 32.9065 17.4927 33.8973 27.1014C34.8881 36.7101 33.8973 51 33.8973 51H44.5463C46.0322 27.5942 43.9889 14.5362 36.6215 12.8116C29.254 11.087 25.1467 15.3575 23.2481 17.4927C22.34 15.9323 21.0192 12.6347 14.085 12.8116Z" fill="#308EFF"/>
<ellipse cx="14.5803" cy="4.68116" rx="4.70538" ry="4.68116" fill="#308EFF"/>
<ellipse cx="34.3925" cy="4.68116" rx="4.70539" ry="4.68116" fill="#308EFF"/>
<path d="M66.1875 16.875L74.9531 41.625L83.6719 16.875H92.9062V51H85.8516V41.6719L86.5547 25.5703L77.3438 51H72.5156L63.3281 25.5938L64.0312 41.6719V51H57V16.875H66.1875Z" fill="#308EFF"/>
<path d="M97.5469 38.0859C97.5469 35.5703 98.0312 33.3281 99 31.3594C99.9688 29.3906 101.359 27.8672 103.172 26.7891C105 25.7109 107.117 25.1719 109.523 25.1719C112.945 25.1719 115.734 26.2188 117.891 28.3125C120.062 30.4062 121.273 33.25 121.523 36.8438L121.57 38.5781C121.57 42.4688 120.484 45.5938 118.312 47.9531C116.141 50.2969 113.227 51.4688 109.57 51.4688C105.914 51.4688 102.992 50.2969 100.805 47.9531C98.6328 45.6094 97.5469 42.4219 97.5469 38.3906V38.0859ZM104.32 38.5781C104.32 40.9844 104.773 42.8281 105.68 44.1094C106.586 45.375 107.883 46.0078 109.57 46.0078C111.211 46.0078 112.492 45.3828 113.414 44.1328C114.336 42.8672 114.797 40.8516 114.797 38.0859C114.797 35.7266 114.336 33.8984 113.414 32.6016C112.492 31.3047 111.195 30.6562 109.523 30.6562C107.867 30.6562 106.586 31.3047 105.68 32.6016C104.773 33.8828 104.32 35.875 104.32 38.5781Z" fill="#308EFF"/>
<path d="M139.992 31.9922C139.07 31.8672 138.258 31.8047 137.555 31.8047C134.992 31.8047 133.312 32.6719 132.516 34.4062V51H125.742V25.6406H132.141L132.328 28.6641C133.688 26.3359 135.57 25.1719 137.977 25.1719C138.727 25.1719 139.43 25.2734 140.086 25.4766L139.992 31.9922Z" fill="#308EFF"/>
<path d="M157.008 43.9922C157.008 43.1641 156.594 42.5156 155.766 42.0469C154.953 41.5625 153.641 41.1328 151.828 40.7578C145.797 39.4922 142.781 36.9297 142.781 33.0703C142.781 30.8203 143.711 28.9453 145.57 27.4453C147.445 25.9297 149.891 25.1719 152.906 25.1719C156.125 25.1719 158.695 25.9297 160.617 27.4453C162.555 28.9609 163.523 30.9297 163.523 33.3516H156.75C156.75 32.3828 156.438 31.5859 155.812 30.9609C155.188 30.3203 154.211 30 152.883 30C151.742 30 150.859 30.2578 150.234 30.7734C149.609 31.2891 149.297 31.9453 149.297 32.7422C149.297 33.4922 149.648 34.1016 150.352 34.5703C151.07 35.0234 152.273 35.4219 153.961 35.7656C155.648 36.0938 157.07 36.4688 158.227 36.8906C161.805 38.2031 163.594 40.4766 163.594 43.7109C163.594 46.0234 162.602 47.8984 160.617 49.3359C158.633 50.7578 156.07 51.4688 152.93 51.4688C150.805 51.4688 148.914 51.0938 147.258 50.3438C145.617 49.5781 144.328 48.5391 143.391 47.2266C142.453 45.8984 141.984 44.4688 141.984 42.9375H148.406C148.469 44.1406 148.914 45.0625 149.742 45.7031C150.57 46.3438 151.68 46.6641 153.07 46.6641C154.367 46.6641 155.344 46.4219 156 45.9375C156.672 45.4375 157.008 44.7891 157.008 43.9922Z" fill="#308EFF"/>
<path d="M175.125 51H168.328V25.6406H175.125V51ZM167.93 19.0781C167.93 18.0625 168.266 17.2266 168.938 16.5703C169.625 15.9141 170.555 15.5859 171.727 15.5859C172.883 15.5859 173.805 15.9141 174.492 16.5703C175.18 17.2266 175.523 18.0625 175.523 19.0781C175.523 20.1094 175.172 20.9531 174.469 21.6094C173.781 22.2656 172.867 22.5938 171.727 22.5938C170.586 22.5938 169.664 22.2656 168.961 21.6094C168.273 20.9531 167.93 20.1094 167.93 19.0781Z" fill="#308EFF"/>
<path d="M179.672 38.1328C179.672 34.1797 180.555 31.0312 182.32 28.6875C184.102 26.3438 186.531 25.1719 189.609 25.1719C192.078 25.1719 194.117 26.0938 195.727 27.9375V15H202.523V51H196.406L196.078 48.3047C194.391 50.4141 192.219 51.4688 189.562 51.4688C186.578 51.4688 184.18 50.2969 182.367 47.9531C180.57 45.5938 179.672 42.3203 179.672 38.1328ZM186.445 38.625C186.445 41 186.859 42.8203 187.688 44.0859C188.516 45.3516 189.719 45.9844 191.297 45.9844C193.391 45.9844 194.867 45.1016 195.727 43.3359V33.3281C194.883 31.5625 193.422 30.6797 191.344 30.6797C188.078 30.6797 186.445 33.3281 186.445 38.625Z" fill="#308EFF"/>
</svg>
