<svg width="133" height="36" viewBox="0 0 133 36" fill="none" xmlns="http://www.w3.org/2000/svg">
<path d="M9.97719 9.04348C-0.969345 9.32174 -0.548321 25.913 0.504206 36H7.69661C6.99477 30.0869 6.81948 21.0434 7.17033 18.6087C8.74916 12.3478 12.0824 15.6522 12.0824 19.1304V36H19.4502V20.5217C19.4502 14.4348 23.3095 12.3478 24.0113 19.1304C24.7131 25.913 24.0113 36 24.0113 36H31.5546C32.6071 19.4782 31.1598 10.2608 25.941 9.04348C20.7222 7.82612 17.8128 10.8406 16.4679 12.3478C15.8246 11.2463 14.889 8.91862 9.97719 9.04348Z" fill="#308EFF"/>
<ellipse cx="9.22883" cy="3.30434" rx="3.33308" ry="3.30434" fill="#308EFF"/>
<ellipse cx="23.2628" cy="3.30434" rx="3.33308" ry="3.30434" fill="#308EFF"/>
<path d="M37.3721 23.9902C37.3721 21.7326 37.8133 19.7205 38.6958 17.9537C39.5783 16.1869 40.845 14.8198 42.4961 13.8523C44.1615 12.8848 46.0901 12.401 48.2821 12.401C51.3992 12.401 53.9399 13.3405 55.9041 15.2194C57.8826 17.0984 58.9857 19.6504 59.2134 22.8754L59.2561 24.4318C59.2561 27.9233 58.2669 30.7277 56.2884 32.845C54.3099 34.9483 51.6554 36 48.3248 36C44.9941 36 42.3324 34.9483 40.3398 32.845C38.3613 30.7417 37.3721 27.8812 37.3721 24.2636V23.9902ZM43.5423 24.4318C43.5423 26.5912 43.9551 28.2458 44.7806 29.3956C45.6062 30.5314 46.7875 31.0993 48.3248 31.0993C49.8193 31.0993 50.9864 30.5384 51.8262 29.4167C52.666 28.2809 53.0859 26.472 53.0859 23.9902C53.0859 21.8728 52.666 20.2323 51.8262 19.0684C50.9864 17.9046 49.805 17.3227 48.2821 17.3227C46.7733 17.3227 45.6062 17.9046 44.7806 19.0684C43.9551 20.2182 43.5423 22.006 43.5423 24.4318Z" fill="#308EFF"/>
<path d="M76.0374 18.5216C75.1976 18.4094 74.4575 18.3533 73.817 18.3533C71.4827 18.3533 69.9526 19.1315 69.2267 20.688V35.5793H63.0564V12.8217H68.8851L69.0559 15.5349C70.2942 13.4456 72.0093 12.401 74.2013 12.401C74.8845 12.401 75.525 12.4921 76.1228 12.6744L76.0374 18.5216Z" fill="#308EFF"/>
<path d="M91.5377 29.2905C91.5377 28.5473 91.1605 27.9654 90.4061 27.5447C89.666 27.11 88.4704 26.7244 86.8193 26.3879C81.3251 25.2521 78.5781 22.9525 78.5781 19.4891C78.5781 17.4699 79.425 15.7873 81.1188 14.4412C82.8268 13.0811 85.0543 12.401 87.8014 12.401C90.7335 12.401 93.0749 13.0811 94.8256 14.4412C96.5906 15.8013 97.4731 17.5681 97.4731 19.7415H91.3028C91.3028 18.8721 91.0182 18.157 90.4488 17.5961C89.8795 17.0212 88.9899 16.7338 87.78 16.7338C86.741 16.7338 85.9368 16.9651 85.3675 17.4279C84.7981 17.8906 84.5135 18.4795 84.5135 19.1946C84.5135 19.8677 84.8337 20.4146 85.4742 20.8352C86.129 21.2418 87.2249 21.5994 88.7622 21.9079C90.2994 22.2024 91.5946 22.5389 92.6479 22.9175C95.9074 24.0953 97.5371 26.1355 97.5371 29.0381C97.5371 31.1133 96.6333 32.7959 94.8256 34.086C93.018 35.362 90.6837 36 87.8227 36C85.887 36 84.1647 35.6634 82.656 34.9904C81.1615 34.3033 79.9872 33.3708 79.1332 32.193C78.2792 31.0011 77.8522 29.7181 77.8522 28.344H83.7021C83.7591 29.4237 84.1647 30.251 84.9191 30.8259C85.6735 31.4008 86.6841 31.6882 87.9508 31.6882C89.1322 31.6882 90.0218 31.4709 90.6196 31.0362C91.2317 30.5875 91.5377 30.0056 91.5377 29.2905Z" fill="#308EFF"/>
<path d="M108.041 35.5793H101.85V12.8217H108.041V35.5793ZM101.487 6.93244C101.487 6.02101 101.793 5.27083 102.405 4.68191C103.031 4.09299 103.878 3.79853 104.946 3.79853C105.999 3.79853 106.839 4.09299 107.465 4.68191C108.091 5.27083 108.404 6.02101 108.404 6.93244C108.404 7.85789 108.084 8.61507 107.444 9.20399C106.817 9.79292 105.985 10.0874 104.946 10.0874C103.907 10.0874 103.067 9.79292 102.426 9.20399C101.8 8.61507 101.487 7.85789 101.487 6.93244Z" fill="#308EFF"/>
<path d="M112.183 24.0322C112.183 20.4847 112.988 17.6592 114.596 15.5559C116.219 13.4526 118.432 12.401 121.236 12.401C123.485 12.401 125.342 13.2283 126.808 14.8829V3.27271H133V35.5793H127.427L127.129 33.1605C125.591 35.0535 123.613 36 121.193 36C118.475 36 116.29 34.9483 114.639 32.845C113.002 30.7277 112.183 27.7901 112.183 24.0322ZM118.354 24.4739C118.354 26.6052 118.731 28.2388 119.485 29.3746C120.24 30.5104 121.336 31.0783 122.773 31.0783C124.68 31.0783 126.025 30.286 126.808 28.7015V19.7205C126.04 18.136 124.709 17.3437 122.816 17.3437C119.841 17.3437 118.354 19.7205 118.354 24.4739Z" fill="#308EFF"/>
</svg>
